<svg width="1440" height="997" viewBox="0 0 1440 997" fill="none" xmlns="http://www.w3.org/2000/svg">
<path opacity="0.78" d="M268.646 401.083H212.066C195.498 401.083 182.066 414.514 182.066 431.083V692.375C182.066 708.943 195.498 722.375 212.066 722.375H446.184C457.736 722.375 467.101 713.009 467.101 701.457C467.101 689.905 476.466 680.54 488.019 680.54H554.797C571.365 680.54 584.797 667.108 584.797 650.54V505.27C584.797 488.701 571.365 475.27 554.797 475.27H493.197C476.628 475.27 463.197 461.838 463.197 445.27V300C463.197 283.431 449.765 270 433.197 270H328.646C312.078 270 298.646 283.431 298.646 300V345.303V351.439V371.083C298.646 387.651 285.215 401.083 268.646 401.083Z" fill="#F5EBDD" stroke="#684D45"/>
<path d="M207.167 654.58V630.418V466.39C207.167 446.508 223.285 430.39 243.167 430.39H314.696C334.579 430.39 350.696 414.273 350.696 394.39V338.352C350.696 318.47 366.814 302.352 386.696 302.352H526.446C546.329 302.352 562.446 318.47 562.446 338.352V411.86C562.446 411.87 562.455 411.879 562.465 411.879C562.476 411.879 562.485 411.887 562.485 411.898V592.361C562.485 612.243 546.367 628.361 526.485 628.361H503.528H411.608H410.344C393.927 628.361 386.371 648.785 398.835 659.47C411.299 670.156 403.742 690.58 387.325 690.58H309.941H243.167C223.285 690.58 207.167 674.462 207.167 654.58Z" fill="#E8CD94"/>
<path d="M207.167 654.58V630.418V466.39C207.167 446.508 223.285 430.39 243.167 430.39H314.696C334.579 430.39 350.696 414.273 350.696 394.39V338.352C350.696 318.47 366.814 302.352 386.696 302.352H526.446C546.329 302.352 562.446 318.47 562.446 338.352V411.86C562.446 411.87 562.455 411.879 562.465 411.879C562.476 411.879 562.485 411.887 562.485 411.898V592.361C562.485 612.243 546.367 628.361 526.485 628.361H503.528H411.608H410.344C393.927 628.361 386.371 648.785 398.835 659.47C411.299 670.156 403.742 690.58 387.325 690.58H309.941H243.167C223.285 690.58 207.167 674.462 207.167 654.58Z" stroke="#684D45"/>
<path fill-rule="evenodd" clip-rule="evenodd" d="M499.38 499.501C499.43 499.971 499.457 500.448 499.457 500.931C499.457 501.414 499.43 501.891 499.38 502.36L496.427 503.662C496.178 504.606 495.803 505.498 495.322 506.322L496.491 509.331C495.89 510.075 495.212 510.754 494.468 511.354L491.458 510.186C490.635 510.666 489.743 511.041 488.799 511.29L487.497 514.243C487.028 514.293 486.551 514.32 486.068 514.32C485.585 514.32 485.108 514.293 484.638 514.243L483.337 511.289C482.393 511.041 481.5 510.666 480.677 510.186L477.668 511.354C476.924 510.753 476.245 510.075 475.645 509.331L476.813 506.322C476.332 505.498 475.957 504.606 475.709 503.662L472.756 502.361C472.705 501.891 472.679 501.414 472.679 500.931C472.679 500.448 472.705 499.971 472.756 499.501L475.708 498.2C475.957 497.256 476.332 496.363 476.813 495.54L475.644 492.531C476.245 491.786 476.923 491.108 477.667 490.508L480.676 491.676C481.5 491.195 482.392 490.82 483.336 490.572L484.638 487.619C485.108 487.569 485.585 487.542 486.068 487.542C486.551 487.542 487.028 487.569 487.497 487.619L488.799 490.572C489.743 490.82 490.635 491.195 491.458 491.676L494.468 490.508C495.212 491.108 495.89 491.786 496.491 492.531L495.322 495.54C495.803 496.364 496.178 497.256 496.426 498.2L499.38 499.501ZM486.068 496.198C483.454 496.198 481.335 498.317 481.335 500.931C481.335 503.545 483.454 505.664 486.068 505.664C488.682 505.664 490.801 503.545 490.801 500.931C490.801 498.317 488.682 496.198 486.068 496.198Z" fill="#F5EBDD"/>
<path fill-rule="evenodd" clip-rule="evenodd" d="M511.686 490.911C511.531 491.182 511.36 491.448 511.173 491.706C510.986 491.965 510.786 492.21 510.578 492.442L508.491 491.994C507.992 492.403 507.446 492.735 506.869 492.99L506.328 495.054C505.718 495.22 505.091 495.32 504.46 495.353L503.302 493.56C502.675 493.498 502.052 493.353 501.45 493.12L499.608 494.197C499.337 494.042 499.071 493.871 498.813 493.684C498.554 493.497 498.309 493.297 498.077 493.088L498.525 491.002C498.116 490.503 497.784 489.956 497.529 489.38L495.465 488.839C495.299 488.229 495.199 487.602 495.166 486.971L496.958 485.813C497.02 485.185 497.165 484.562 497.398 483.961L496.322 482.119C496.477 481.848 496.648 481.582 496.835 481.323C497.022 481.065 497.221 480.82 497.43 480.588L499.516 481.036C500.015 480.627 500.562 480.294 501.139 480.04L501.68 477.975C502.29 477.81 502.916 477.71 503.547 477.677L504.706 479.469C505.333 479.531 505.956 479.676 506.558 479.909L508.4 478.832C508.671 478.988 508.937 479.158 509.195 479.346C509.454 479.533 509.699 479.732 509.931 479.941L509.483 482.027C509.892 482.526 510.224 483.073 510.479 483.65L512.543 484.191C512.709 484.801 512.809 485.427 512.842 486.058L511.049 487.217C510.987 487.844 510.842 488.467 510.609 489.069L511.686 490.911ZM505.839 483.981C504.44 482.967 502.483 483.28 501.47 484.68C500.456 486.079 500.769 488.036 502.169 489.049C503.569 490.063 505.525 489.75 506.538 488.35C507.552 486.95 507.239 484.994 505.839 483.981Z" fill="#F5EBDD"/>
<path fill-rule="evenodd" clip-rule="evenodd" d="M439.172 349.23C439.017 349.501 438.847 349.767 438.659 350.025C438.472 350.284 438.273 350.529 438.064 350.761L435.978 350.313C435.479 350.722 434.932 351.054 434.355 351.309L433.814 353.373C433.204 353.539 432.578 353.639 431.947 353.672L430.788 351.88C430.161 351.817 429.538 351.673 428.936 351.439L427.094 352.516C426.823 352.361 426.558 352.19 426.299 352.003C426.04 351.816 425.795 351.616 425.563 351.408L426.012 349.321C425.602 348.822 425.27 348.276 425.016 347.699L422.951 347.158C422.786 346.548 422.685 345.921 422.652 345.29L424.445 344.132C424.506 343.505 424.652 342.882 424.885 342.28L423.808 340.438C423.963 340.167 424.134 339.901 424.321 339.642C424.509 339.384 424.708 339.139 424.917 338.907L427.002 339.355C427.501 338.946 428.048 338.613 428.625 338.359L429.166 336.295C429.776 336.129 430.402 336.029 431.034 335.996L432.192 337.788C432.819 337.85 433.443 337.995 434.044 338.228L435.886 337.152C436.157 337.307 436.423 337.477 436.682 337.665C436.94 337.852 437.185 338.051 437.417 338.26L436.969 340.346C437.379 340.845 437.711 341.392 437.965 341.969L440.029 342.51C440.195 343.12 440.295 343.746 440.328 344.378L438.536 345.536C438.474 346.163 438.329 346.786 438.096 347.388L439.172 349.23ZM433.325 342.3C431.926 341.286 429.97 341.599 428.956 342.999C427.943 344.398 428.256 346.355 429.655 347.368C431.055 348.382 433.011 348.069 434.025 346.669C435.038 345.269 434.725 343.313 433.325 342.3Z" fill="#F5EBDD"/>
<path d="M373.949 635.916H154.851L138 674.404V678.866H392.914V674.404L373.949 635.916Z" fill="white"/>
<path d="M349.425 650.418C348.309 649.302 344.298 647.741 341.62 650.418C338.273 653.765 339.385 667.152 349.425 664.363" stroke="#684D45"/>
<path d="M349.429 650.418C348.57 649.387 346.109 647.999 344.048 650.474C341.471 653.569 341.471 666.977 349.2 664.399" stroke="#684D45"/>
<path d="M365.105 644.282C365.105 644.37 365.015 644.608 364.439 644.932C363.905 645.233 363.098 645.521 362.059 645.768C359.987 646.261 357.099 646.571 353.892 646.571C350.684 646.571 347.796 646.261 345.724 645.768C344.685 645.521 343.878 645.233 343.344 644.932C342.768 644.608 342.678 644.37 342.678 644.282C342.678 644.195 342.768 643.956 343.344 643.633C343.878 643.332 344.685 643.044 345.724 642.797C347.796 642.303 350.684 641.993 353.892 641.993C357.099 641.993 359.987 642.303 362.059 642.797C363.098 643.044 363.905 643.332 364.439 643.633C365.015 643.956 365.105 644.195 365.105 644.282Z" stroke="#684D45"/>
<ellipse cx="354.45" cy="644.84" rx="10.0404" ry="1.1156" fill="#684D45"/>
<path d="M365.047 666.594C365.047 668.135 360.361 669.383 353.891 669.383C347.422 669.383 342.735 668.135 342.735 666.594" stroke="#684D45"/>
<path d="M365.047 644.282V667.152M342.735 644.282V649.303M342.735 667.152V663.248" stroke="#684D45"/>
<path d="M227.806 525.522C234.389 514.001 231.8 499.244 234.897 485.494C235 485.034 235.081 484.573 235.201 484.117C236.083 480.762 241.495 466.51 263.505 467.511C283.14 468.403 287.491 475.32 289.164 478.667C291.849 484.036 295.114 498.375 294.742 505.999C294.37 508.602 294.184 515.481 296.415 522.175C298.542 528.556 299.487 536.796 299.731 540.612C299.754 540.966 299.753 541.324 299.604 541.645C298.768 543.446 294.564 547.304 282.47 551.738C270.379 556.172 241.905 551.535 225.409 547.855C222.587 547.226 220.701 544.617 221.351 541.799C222.317 537.607 224.265 531.719 227.806 525.522Z" fill="#684D45"/>
<path d="M203.281 623.003L211.63 630.388L208.841 594.131H315.938L314.822 611.422L313.149 634.85L333.449 623.008C337.558 620.611 340.413 616.537 341.264 611.857C341.844 608.665 341.458 605.373 340.154 602.402L320.204 556.941C312.867 540.223 296.338 529.426 278.081 529.426H254.663C236.045 529.426 219.263 540.649 212.151 557.855L206.61 571.261L197.738 604.659C197.332 606.186 197.127 607.76 197.127 609.341C197.127 614.566 199.368 619.541 203.281 623.003Z" fill="#988B8B"/>
<path d="M230.595 580.185C227.918 586.433 223.902 592.085 222.229 594.13H235.616C235.058 586.879 233.273 573.938 230.595 580.185Z" fill="#887272"/>
<path d="M298.228 573.188C302.467 582.57 308.826 591.059 311.476 594.13H290.279C291.162 583.24 293.989 563.806 298.228 573.188Z" fill="#887272"/>
<path d="M253.278 532.495C262.079 533.095 273.356 532.437 278.896 531.682C279.688 531.574 280.274 532.511 279.803 533.157C273.165 542.272 259.802 545.387 252.054 537.196C249.282 534.266 248.769 532.187 253.278 532.495Z" fill="#887272"/>
<path d="M284.143 507.622C284.143 518.712 274.903 534.396 263.505 534.396C252.106 534.396 242.866 518.712 242.866 507.622C242.866 496.532 252.106 487.541 263.505 487.541C274.903 487.541 284.143 496.532 284.143 507.622Z" fill="#D9D9D9"/>
<path d="M214.437 658.186L209.543 594.781H315.242L310.892 658.186H217.164H214.437Z" fill="white" stroke="#684D45" stroke-width="1.3"/>
<path d="M271.93 626.484C271.93 627.774 271.037 629.033 269.399 629.997C267.773 630.954 265.493 631.561 262.947 631.561C260.402 631.561 258.122 630.954 256.496 629.997C254.858 629.033 253.965 627.774 253.965 626.484C253.965 625.193 254.858 623.934 256.496 622.97C258.122 622.013 260.402 621.406 262.947 621.406C265.493 621.406 267.773 622.013 269.399 622.97C271.037 623.934 271.93 625.193 271.93 626.484Z" stroke="#684D45"/>
<path d="M144.135 847.04V683.379H156.965L148.142 847.148C148.085 848.212 147.206 849.045 146.14 849.045C145.033 849.045 144.135 848.147 144.135 847.04Z" fill="white" stroke="#684D45"/>
<path d="M387.336 847.04V683.379H374.507L383.329 847.148C383.387 848.212 384.266 849.045 385.331 849.045C386.439 849.045 387.336 848.147 387.336 847.04Z" fill="white" stroke="#684D45"/>
<path d="M157.523 804.523V683.379H167.563L160.663 804.612C160.616 805.444 159.928 806.094 159.094 806.094C158.227 806.094 157.523 805.391 157.523 804.523Z" fill="white" stroke="#684D45"/>
<path d="M373.949 804.523V683.379H363.908L370.808 804.612C370.856 805.444 371.544 806.094 372.377 806.094C373.245 806.094 373.949 805.391 373.949 804.523Z" fill="white" stroke="#684D45"/>
<path d="M375.049 637.64L392.914 673.896V679.379C392.914 681.588 391.123 683.379 388.914 683.379H386.778H142C139.791 683.379 138 681.588 138 679.379V673.896L153.688 637.813C154.323 636.353 155.764 635.408 157.357 635.408H212.187L214.065 654.617C214.266 656.666 215.988 658.228 218.046 658.228H307.29C309.348 658.228 311.07 656.666 311.271 654.617L313.149 635.408H365.582H371.461C372.984 635.408 374.375 636.274 375.049 637.64Z" fill="white"/>
<path d="M392.914 673.896L375.049 637.64C374.375 636.274 372.984 635.408 371.461 635.408H365.582H313.149L311.271 654.617C311.07 656.666 309.348 658.228 307.29 658.228H218.046C215.988 658.228 214.266 656.666 214.065 654.617L212.187 635.408H157.357C155.764 635.408 154.323 636.353 153.688 637.813L138 673.896M392.914 673.896V679.379C392.914 681.588 391.123 683.379 388.914 683.379H386.778H142C139.791 683.379 138 681.588 138 679.379V673.896M392.914 673.896V673.896C391.504 675.659 389.369 676.685 387.111 676.685H265.178H141.938C140.533 676.685 139.231 675.948 138.508 674.743L138 673.896M386.778 849.045H382.874" stroke="#684D45"/>
<path d="M346.078 650.418C344.963 649.302 340.951 647.741 338.274 650.418C334.927 653.765 336.038 667.152 346.078 664.363" stroke="#684D45"/>
<path d="M346.083 650.418C345.224 649.387 342.762 647.999 340.701 650.474C338.125 653.569 338.125 666.977 345.854 664.399" stroke="#684D45"/>
<path d="M361.759 644.282C361.759 644.37 361.668 644.608 361.093 644.932C360.558 645.233 359.752 645.521 358.712 645.768C356.64 646.261 353.752 646.571 350.545 646.571C347.337 646.571 344.45 646.261 342.378 645.768C341.338 645.521 340.531 645.233 339.997 644.932C339.422 644.608 339.331 644.37 339.331 644.282C339.331 644.195 339.422 643.956 339.997 643.633C340.531 643.332 341.338 643.044 342.378 642.797C344.45 642.303 347.337 641.993 350.545 641.993C353.752 641.993 356.64 642.303 358.712 642.797C359.752 643.044 360.558 643.332 361.093 643.633C361.668 643.956 361.759 644.195 361.759 644.282Z" stroke="#684D45"/>
<ellipse cx="351.103" cy="644.84" rx="10.0404" ry="1.1156" fill="#684D45"/>
<path d="M361.701 666.594C361.701 668.135 357.014 669.383 350.545 669.383C344.075 669.383 339.389 668.135 339.389 666.594" stroke="#684D45"/>
<path d="M361.701 644.282V667.152M339.389 644.282V649.303M339.389 667.152V663.248" stroke="#684D45"/>
<path d="M154.231 658.653L172.885 644.247M154.231 658.653H199.605M154.231 658.653V661.226H199.605M154.231 658.653C153.021 656.595 150.366 656.767 149.19 657.11M172.885 644.247C173.053 643.046 172.784 640.851 170.364 641.674C167.944 642.497 155.24 652.308 149.19 657.11M172.885 644.247H207.167M149.19 657.11C148.854 661.055 150.904 667.401 161.794 661.226M199.605 658.653L207.167 644.247M199.605 658.653V661.226M207.167 644.247V646.819L199.605 661.226" stroke="#684D45"/>
<path d="M208.341 642.659C208.341 642.868 208.189 643.177 207.64 643.548C207.109 643.906 206.308 644.249 205.272 644.545C203.209 645.135 200.329 645.506 197.127 645.506C193.925 645.506 191.045 645.135 188.981 644.545C187.946 644.249 187.145 643.906 186.613 643.548C186.065 643.177 185.913 642.868 185.913 642.659C185.913 642.451 186.065 642.141 186.613 641.771C187.145 641.412 187.946 641.069 188.981 640.774C191.045 640.184 193.925 639.812 197.127 639.812C200.329 639.812 203.209 640.184 205.272 640.774C206.308 641.069 207.109 641.412 207.64 641.771C208.189 642.141 208.341 642.451 208.341 642.659Z" stroke="#684D45"/>
<ellipse cx="196.569" cy="642.659" rx="11.156" ry="2.23119" fill="#684D45"/>
<path d="M208.283 663.33V643.217C199.804 646.787 189.875 644.705 185.971 643.217V663.431C185.971 665.04 186.933 666.509 188.486 666.931C192.457 668.01 198.926 668.8 205.663 666.943C207.264 666.503 208.283 664.99 208.283 663.33Z" fill="white" stroke="#684D45"/>
<path d="M184.316 634.292C181.148 634.292 180.229 635.603 180.162 636.83C180.117 637.651 180.343 638.319 181.048 637.896C182.498 637.027 183.203 638.765 181.622 639.363C180.316 639.857 179.277 640.427 179.277 640.986C179.277 641.953 181.526 641.057 183.425 640.129C184.74 639.486 186.181 640.986 187.644 640.986C188.549 640.986 189.499 642.136 190.433 642.847C190.794 643.122 191.24 643.244 191.689 643.309C194.573 643.726 194.718 644.122 199.916 643.775C202.722 643.588 203.82 640.986 209.974 641.544C212.806 641.8 208.858 637.082 204.954 636.524C201.049 635.966 211.023 631.14 205.494 632.061C198.8 633.176 205.511 630.388 206.069 627.041C206.627 623.694 211.647 623.136 209.416 621.463C207.185 619.79 199.376 624.252 198.26 626.483C198.577 625.739 202.144 617.001 200.491 617.001C198.425 617.001 196.587 624.81 194.913 619.79C193.24 614.769 188.22 614.212 185.431 614.212C182.641 614.212 191.566 620.347 190.451 624.252C190.175 625.217 189.963 625.816 189.802 626.162C189.468 626.878 189.14 625.534 188.562 624.996C186.388 622.971 183.948 625.188 182.983 626.494C182.727 626.84 182.473 627.192 182.187 627.513C180.772 629.104 180.889 630.087 183.74 629.272C184.695 628.999 185.572 629.137 186.383 629.528C188.373 630.49 186.526 634.292 184.316 634.292Z" fill="#F5F5F5" stroke="#684D45"/>
<rect x="335.461" y="452.958" width="65.8202" height="80.323" fill="white"/>
<rect x="343.271" y="465.229" width="23.4275" height="22.3119" fill="#684D45"/>
<path d="M343.828 514.873H394.03M343.828 499.255H394.03M343.828 507.064H394.03" stroke="#684D45" stroke-width="2"/>
<path d="M374.507 492.004H394.03" stroke="#684D45" stroke-width="2"/>
<path d="M374.507 478.617H394.03" stroke="#684D45" stroke-width="2"/>
<path d="M374.507 485.31H394.03" stroke="#684D45" stroke-width="2"/>
<path d="M374.507 471.923H394.03" stroke="#684D45" stroke-width="2"/>
<path d="M374.507 466.345H394.03" stroke="#684D45" stroke-width="2"/>
<rect x="433.633" y="346.976" width="92.5945" height="80.323" fill="white"/>
<rect x="433.633" y="346.976" width="92.5945" height="7.80918" fill="#684D45"/>
<path d="M460.407 350.88H497.222" stroke="white" stroke-width="2"/>
<path d="M445.904 417.259H513.956M445.904 406.103H513.956M445.904 411.681H513.956" stroke="#684D45" stroke-width="2"/>
<path d="M447.02 360.363V394.389H513.398" stroke="#684D45" stroke-width="2"/>
<rect x="454.829" y="371.519" width="6.69358" height="20.0807" fill="#F5EBDD"/>
<rect x="465.985" y="380.444" width="6.69358" height="11.156" fill="#F5EBDD"/>
<rect x="477.141" y="364.825" width="6.69358" height="26.7743" fill="#F5EBDD"/>
<rect x="488.297" y="364.825" width="6.69358" height="26.7743" fill="#F5EBDD"/>
<rect x="499.453" y="375.981" width="6.69358" height="15.6184" fill="#F5EBDD"/>
<path d="M457.618 394.947V397.178" stroke="#684D45" stroke-width="2"/>
<path d="M469.332 394.947V397.178" stroke="#684D45" stroke-width="2"/>
<path d="M480.488 394.947V397.178" stroke="#684D45" stroke-width="2"/>
<path d="M491.644 394.947V397.178" stroke="#684D45" stroke-width="2"/>
<path d="M502.8 394.947V397.178" stroke="#684D45" stroke-width="2"/>
<rect x="390.125" y="504.275" width="92.5945" height="80.323" fill="white"/>
<rect x="390.125" y="504.275" width="92.5945" height="7.80918" fill="#684D45"/>
<path d="M416.899 508.18H453.714" stroke="white" stroke-width="2"/>
<path d="M402.396 574.558H470.448M402.396 563.402H470.448M402.396 568.98H470.448" stroke="#684D45" stroke-width="2"/>
<path fill-rule="evenodd" clip-rule="evenodd" d="M375.755 540.732C375.573 541.049 375.374 541.359 375.156 541.661C374.937 541.963 374.704 542.249 374.46 542.52L372.025 541.996C371.442 542.474 370.804 542.862 370.131 543.159L369.499 545.569C368.787 545.763 368.056 545.88 367.319 545.918L365.966 543.826C365.234 543.753 364.507 543.584 363.804 543.312L361.654 544.569C361.338 544.387 361.028 544.188 360.726 543.97C360.424 543.751 360.138 543.518 359.867 543.275L360.39 540.839C359.912 540.257 359.525 539.618 359.227 538.945L356.817 538.313C356.624 537.601 356.507 536.87 356.468 536.133L358.561 534.781C358.633 534.048 358.802 533.321 359.075 532.618L357.818 530.468C357.999 530.152 358.198 529.841 358.417 529.54C358.636 529.238 358.868 528.952 359.112 528.681L361.547 529.204C362.129 528.726 362.768 528.338 363.441 528.041L364.073 525.631C364.785 525.438 365.516 525.321 366.253 525.282L367.605 527.374C368.338 527.447 369.065 527.616 369.768 527.888L371.918 526.632C372.235 526.813 372.545 527.012 372.847 527.231C373.149 527.45 373.435 527.682 373.706 527.926L373.182 530.361C373.66 530.944 374.048 531.582 374.345 532.255L376.755 532.887C376.948 533.599 377.065 534.33 377.104 535.067L375.011 536.42C374.939 537.152 374.77 537.879 374.497 538.582L375.755 540.732ZM368.929 532.642C367.295 531.459 365.011 531.824 363.828 533.458C362.645 535.092 363.01 537.376 364.644 538.559C366.278 539.742 368.562 539.377 369.745 537.743C370.928 536.108 370.563 533.825 368.929 532.642Z" fill="#F5EBDD"/>
<circle cx="390.683" cy="416.701" r="2.78899" fill="#F5EBDD"/>
<circle cx="448.693" cy="329.685" r="2.78899" fill="#F5EBDD"/>
<circle cx="483.277" cy="571.769" r="2.78899" fill="#F5EBDD"/>
<circle cx="309.244" cy="479.174" r="2.78899" fill="#F5EBDD"/>
<circle cx="506.705" cy="507.064" r="2.78899" fill="#F5EBDD"/>
<circle cx="415.672" cy="537.743" r="13.3872" fill="#F5EBDD"/>
<path d="M429.059 537.743C429.059 534.646 427.986 531.644 426.021 529.25C424.056 526.856 421.322 525.217 418.284 524.613C415.246 524.009 412.093 524.476 409.362 525.936C406.63 527.396 404.489 529.758 403.304 532.62C402.119 535.481 401.963 538.665 402.862 541.629C403.761 544.593 405.66 547.153 408.235 548.874C410.81 550.595 413.902 551.369 416.984 551.066C420.067 550.762 422.948 549.399 425.138 547.209L415.672 537.743H429.059Z" fill="#D6D0C7"/>
<circle cx="457.172" cy="537.743" r="13.3872" fill="#F5EBDD"/>
<path d="M470.559 537.743C470.559 535.177 469.822 532.665 468.435 530.506C467.047 528.347 465.069 526.632 462.735 525.566C460.401 524.5 457.809 524.127 455.269 524.492C452.729 524.857 450.347 525.944 448.408 527.624L457.172 537.743H470.559Z" fill="#D6D0C7"/>
<path d="M487.808 592.817L487.648 593V593.245V596.496C487.648 598.346 486.148 599.846 484.298 599.846H482.72H481.142C479.291 599.846 477.792 598.346 477.792 596.496V593.245V593.028L477.662 592.855L477.543 592.696C476.539 591.358 475.693 589.911 475.018 588.381L474.682 587.618C472.106 581.773 476.387 575.208 482.775 575.208C488.998 575.208 493.274 581.465 491.014 587.264L490.721 588.015C490.036 589.772 489.05 591.397 487.808 592.817Z" stroke="#684D45" stroke-width="1.3"/>
<path d="M482.431 591.013V590.513C482.37 590.513 482.309 590.525 482.252 590.546L482.431 591.013ZM482.889 593.045C482.574 592.321 482.206 591.256 482.101 590.395C482.048 589.955 482.073 589.641 482.147 589.459C482.18 589.379 482.215 589.343 482.241 589.325C482.266 589.308 482.319 589.282 482.431 589.282V588.282C482.154 588.282 481.895 588.349 481.675 588.501C481.456 588.651 481.312 588.86 481.221 589.081C481.049 589.504 481.049 590.027 481.109 590.516C481.23 591.515 481.64 592.681 481.972 593.444L482.889 593.045ZM482.252 590.546C482.097 590.606 481.998 590.6 481.932 590.582C481.862 590.563 481.78 590.515 481.688 590.409C481.491 590.182 481.32 589.775 481.198 589.246L480.223 589.472C480.357 590.048 480.572 590.65 480.934 591.065C481.121 591.28 481.361 591.461 481.663 591.545C481.969 591.63 482.289 591.603 482.609 591.48L482.252 590.546ZM482.777 589.629V590.24H483.777V589.629H482.777ZM482.504 590.513H482.431V591.513H482.504V590.513ZM482.777 590.24C482.777 590.391 482.655 590.513 482.504 590.513V591.513C483.207 591.513 483.777 590.943 483.777 590.24H482.777ZM482.431 589.282C482.622 589.282 482.777 589.437 482.777 589.629H483.777C483.777 588.885 483.174 588.282 482.431 588.282V589.282ZM481.198 589.246C480.987 588.339 481.599 587.405 482.609 587.018L482.252 586.084C480.923 586.593 479.867 587.938 480.223 589.472L481.198 589.246Z" fill="#684D45"/>
<path d="M478.257 593.245H487.182V596.034H478.257M478.257 598.265H487.182" stroke="#684D45"/>
<path d="M441.721 418.152H439.47C439.302 416.985 438.581 415.972 437.533 415.433C436.486 414.893 435.242 414.893 434.195 415.433C433.147 415.972 432.426 416.985 432.257 418.152H414.389C413.871 418.152 413.375 418.358 413.009 418.724C412.643 419.09 412.437 419.586 412.437 420.104V438.585C412.437 439.103 412.643 439.599 413.009 439.965C413.375 440.331 413.871 440.537 414.389 440.538H424.889C424.782 441.212 424.463 441.834 423.979 442.315L423.154 443.141H422.849C422.573 443.141 422.308 443.251 422.113 443.446C421.918 443.641 421.808 443.906 421.808 444.182V445.744C421.808 445.882 421.862 446.014 421.96 446.112C422.058 446.21 422.19 446.265 422.328 446.265H433.782C433.92 446.265 434.052 446.21 434.15 446.112C434.247 446.014 434.302 445.882 434.302 445.744V444.182C434.302 443.906 434.192 443.641 433.997 443.446C433.802 443.251 433.537 443.141 433.261 443.141H432.956L432.131 442.315C431.647 441.834 431.328 441.212 431.221 440.538H441.721C442.239 440.537 442.735 440.331 443.101 439.965C443.467 439.599 443.673 439.103 443.673 438.585V420.104C443.673 419.586 443.467 419.09 443.101 418.724C442.735 418.358 442.238 418.152 441.721 418.152ZM438.415 418.152H437.548C437.498 417.695 437.381 417.249 437.201 416.826L436.986 416.324C437.721 416.677 438.25 417.353 438.415 418.152ZM437.202 420.518C437.382 420.095 437.498 419.649 437.548 419.193H438.415C438.25 419.992 437.722 420.668 436.986 421.021L437.202 420.518ZM435.484 417.237L435.864 416.35L436.244 417.237C436.369 417.529 436.455 417.837 436.5 418.152H435.228C435.273 417.837 435.359 417.529 435.484 417.237ZM436.5 419.193C436.455 419.508 436.369 419.815 436.244 420.108L435.864 420.995L435.483 420.108C435.359 419.816 435.273 419.508 435.228 419.193H436.5ZM434.742 416.324L434.526 416.827C434.346 417.249 434.23 417.695 434.18 418.152H433.313C433.478 417.353 434.006 416.676 434.742 416.324ZM434.18 419.193C434.23 419.649 434.346 420.096 434.526 420.518L434.742 421.021C434.006 420.668 433.478 419.992 433.313 419.193L434.18 419.193ZM433.261 444.182V445.224H422.849L422.848 444.182H433.261ZM431.394 443.052L431.483 443.141H424.626L424.716 443.052C425.396 442.376 425.827 441.49 425.941 440.538H430.168C430.282 441.49 430.714 442.376 431.394 443.052ZM442.632 438.586C442.632 438.827 442.536 439.059 442.365 439.23C442.194 439.401 441.963 439.497 441.721 439.497H414.389C414.147 439.497 413.915 439.401 413.745 439.23C413.574 439.059 413.478 438.827 413.478 438.586V437.414H442.632L442.632 438.586ZM442.632 436.373H413.478V420.104C413.478 419.862 413.574 419.631 413.745 419.46C413.916 419.289 414.147 419.193 414.389 419.193H432.258C432.371 419.971 432.733 420.691 433.289 421.247C433.845 421.803 434.565 422.165 435.343 422.279L436.385 422.279C437.163 422.166 437.883 421.803 438.439 421.247C438.995 420.691 439.357 419.971 439.47 419.193H441.721C441.962 419.193 442.194 419.289 442.365 419.46C442.536 419.631 442.632 419.862 442.632 420.104L442.632 436.373Z" fill="#684D45"/>
<path d="M433.122 430.107H430.376C430.442 430.04 430.504 429.968 430.56 429.892L431.597 428.471C432.273 427.55 432.42 426.356 431.987 425.305L431.975 425.275C431.725 424.664 431.203 424.198 430.558 424.012C429.913 423.825 429.216 423.937 428.666 424.316C428.865 423.576 429.262 422.902 429.816 422.362L429.904 422.276H429.904C430.001 422.183 430.056 422.055 430.056 421.922C430.057 421.789 430.003 421.661 429.906 421.567C429.81 421.473 429.68 421.42 429.543 421.42C429.407 421.421 429.277 421.474 429.181 421.569L429.093 421.655L429.093 421.655C428.93 421.816 428.777 421.986 428.635 422.166L428.493 421.821C428.329 421.426 428.038 421.095 427.664 420.878C427.289 420.661 426.852 420.57 426.42 420.619L424.948 420.788C424.774 420.808 424.622 420.914 424.547 421.069C424.471 421.224 424.482 421.406 424.576 421.551L425.418 422.857V422.856C425.78 423.42 426.414 423.762 427.094 423.762C427.204 423.762 427.314 423.753 427.422 423.736L427.797 423.675C427.702 423.944 427.63 424.219 427.58 424.499C427.049 424.017 426.309 423.82 425.602 423.975C424.895 424.13 424.311 424.617 424.042 425.275L424.029 425.305C423.597 426.356 423.744 427.551 424.419 428.471L425.457 429.892C425.513 429.968 425.575 430.04 425.641 430.107H423.918C423.005 430.107 422.16 430.584 421.704 431.358C421.247 432.131 421.247 433.085 421.704 433.858C422.16 434.632 423.005 435.108 423.918 435.108H433.122C433.257 435.108 433.387 435.056 433.483 434.962C433.579 434.868 433.633 434.741 433.633 434.608V430.607C433.633 430.475 433.579 430.348 433.483 430.254C433.387 430.16 433.257 430.107 433.122 430.107L433.122 430.107ZM427.254 422.749C427.067 422.779 426.875 422.755 426.702 422.679C426.529 422.603 426.383 422.479 426.282 422.322L425.873 421.688L426.539 421.612C426.749 421.588 426.961 421.632 427.142 421.737C427.324 421.843 427.465 422.003 427.544 422.195L427.74 422.67L427.254 422.749ZM425.251 427.889V427.889C424.779 427.246 424.676 426.411 424.979 425.676L424.991 425.646V425.646C425.098 425.386 425.298 425.172 425.555 425.046C425.811 424.92 426.106 424.89 426.383 424.961C426.661 425.033 426.902 425.202 427.061 425.435C427.272 425.745 427.628 425.931 428.008 425.931C428.389 425.931 428.744 425.745 428.956 425.435C429.115 425.202 429.356 425.033 429.633 424.961C429.911 424.89 430.206 424.92 430.462 425.046C430.719 425.172 430.919 425.385 431.026 425.646L431.038 425.676C431.34 426.41 431.238 427.246 430.765 427.889L429.728 429.31C429.618 429.462 429.46 429.575 429.279 429.633C429.098 429.691 428.903 429.69 428.723 429.63L428.17 429.45V429.45C428.065 429.416 427.952 429.416 427.847 429.45L427.294 429.63V429.63C427.114 429.69 426.918 429.69 426.738 429.633C426.557 429.575 426.399 429.462 426.289 429.31L425.251 427.889ZM432.61 432.108H423.918C423.636 432.108 423.407 432.331 423.407 432.608C423.407 432.884 423.636 433.108 423.918 433.108H432.61V434.108H423.918C423.37 434.108 422.864 433.822 422.589 433.358C422.315 432.894 422.315 432.322 422.589 431.858C422.864 431.393 423.37 431.107 423.918 431.107H432.61V432.108Z" fill="#684D45"/>
<path d="M-1 923H274.5C294.382 923 310.5 939.118 310.5 959V959C310.5 978.882 326.618 995 346.5 995H487.5C508.487 995 525.5 977.987 525.5 957V887.5C525.5 866.513 542.513 849.5 563.5 849.5H689.25C706.233 849.5 720 835.733 720 818.75V818.75C720 801.767 733.767 788 750.75 788H1267C1287.99 788 1305 770.987 1305 750V731C1305 710.013 1322.01 693 1343 693H1440" stroke="#684D45" stroke-opacity="0.11" stroke-width="3"/>
<path d="M0 604H112.29C133.276 604 150.29 586.987 150.29 566V403.89C150.29 382.903 167.303 365.89 188.29 365.89H235.061C256.048 365.89 273.061 348.876 273.061 327.89V270.466C273.061 249.479 290.075 232.466 311.061 232.466H704.981C725.968 232.466 742.981 215.452 742.981 194.466V96.5013C742.981 75.5144 759.994 58.5013 780.981 58.5013H1358C1378.99 58.5013 1396 41.4881 1396 20.5013V0" stroke="#684D45" stroke-opacity="0.11" stroke-width="3"/>
</svg>
