<svg width="1440" height="306" viewBox="0 0 1440 306" fill="none" xmlns="http://www.w3.org/2000/svg">
<path d="M-1 232H274.5C294.382 232 310.5 248.118 310.5 268V268C310.5 287.882 326.618 304 346.5 304H487.5C508.487 304 525.5 286.987 525.5 266V196.5C525.5 175.513 542.513 158.5 563.5 158.5H689.25C706.233 158.5 720 144.733 720 127.75V127.75C720 110.767 733.767 97 750.75 97H1267C1287.99 97 1305 79.9868 1305 59V40C1305 19.0132 1322.01 2 1343 2H1440" stroke="#684D45" stroke-opacity="0.11" stroke-width="3"/>
</svg>
