<svg width="25" height="25" viewBox="0 0 25 25" fill="none" xmlns="http://www.w3.org/2000/svg">
<path fill-rule="evenodd" clip-rule="evenodd" d="M10.7933 1.63112C5.77041 2.41217 1.8723 6.59272 1.52517 11.7466H7.07783C7.29856 8.07614 8.59501 4.55942 10.7933 1.63112ZM12.4966 0C5.59491 0 0 5.59491 0 12.4966C0 19.3982 5.59491 24.9932 12.4966 24.9932C19.3982 24.9932 24.9932 19.3982 24.9932 12.4966C24.9932 5.59491 19.3982 0 12.4966 0ZM14.1999 1.63112C16.3981 4.55942 17.6946 8.07614 17.9153 11.7466H23.468C23.1208 6.59272 19.2227 2.41217 14.1999 1.63112ZM16.4124 11.7466C16.176 8.13156 14.8051 4.68296 12.4966 1.8927C10.188 4.68296 8.81719 8.13156 8.58077 11.7466H16.4124ZM8.58077 13.2466H16.4124C16.176 16.8616 14.8051 20.3102 12.4966 23.1004C10.188 20.3102 8.81719 16.8616 8.58077 13.2466ZM7.07783 13.2466H1.52517C1.8723 18.4004 5.77041 22.581 10.7933 23.362C8.59501 20.4337 7.29856 16.917 7.07783 13.2466ZM14.1999 23.362C16.3981 20.4337 17.6946 16.917 17.9153 13.2466H23.468C23.1208 18.4004 19.2227 22.581 14.1999 23.362Z" fill="#684D45"/>
</svg>
