<svg width="275" height="233" viewBox="0 0 275 233" fill="none" xmlns="http://www.w3.org/2000/svg">
<path d="M158.019 231.879H120.556C120.487 231.879 120.431 231.823 120.431 231.754C120.431 231.685 120.375 231.629 120.306 231.629H37.3887C17.5064 231.629 1.38867 215.511 1.38867 195.629V170.406C1.38867 150.523 17.5065 134.406 37.3887 134.406H79.8317C97.24 134.406 111.352 120.293 111.352 102.885C111.352 85.4769 125.464 71.3647 142.873 71.3647H246.619C261.51 71.3647 273.582 83.4366 273.582 98.328V125.277C273.582 125.285 273.589 125.291 273.597 125.291C273.605 125.291 273.612 125.298 273.612 125.306V195.879C273.612 215.761 257.494 231.879 237.612 231.879H228.443H158.019Z" fill="#F5EBDD" stroke="#684D45"/>
<path d="M156.116 209.971H124.831C124.741 209.971 124.668 209.898 124.668 209.808C124.668 209.718 124.595 209.645 124.505 209.645H61.0703C41.1881 209.645 25.0703 193.527 25.0703 173.645V119.072C25.0703 99.1899 41.1881 83.0721 61.0703 83.0721H81.0723C100.955 83.0721 117.072 66.9543 117.072 47.0721V37C117.072 17.1178 133.19 1 153.072 1H217.701C237.087 1 252.804 16.7162 252.804 36.1031V71.194C252.804 71.2008 252.809 71.2063 252.816 71.2063C252.823 71.2063 252.828 71.2118 252.828 71.2185V173.971C252.828 193.853 236.71 209.971 216.828 209.971H215.037H156.116Z" fill="#E8CD94" stroke="#684D45"/>
<rect x="17.6572" y="43.1648" width="73.535" height="63.7894" fill="white"/>
<rect x="17.6572" y="43.1648" width="73.535" height="6.20175" fill="#684D45"/>
<path d="M38.9199 46.2661H68.1567" stroke="white" stroke-width="2"/>
<path d="M27.4023 98.9805H81.4462M27.4023 90.1208H81.4462M27.4023 94.5507H81.4462" stroke="#684D45" stroke-width="2"/>
<path d="M28.2881 53.796V80.8179H81.0029" stroke="#684D45" stroke-width="2"/>
<rect x="34.4902" y="62.6558" width="5.31579" height="15.9474" fill="#F5EBDD"/>
<rect x="43.3506" y="69.7393" width="5.31579" height="8.85964" fill="#F5EBDD"/>
<rect x="52.209" y="57.3413" width="5.31579" height="21.2631" fill="#F5EBDD"/>
<rect x="61.0684" y="57.3413" width="5.31579" height="21.2631" fill="#F5EBDD"/>
<rect x="69.9287" y="66.1987" width="5.31579" height="12.4035" fill="#F5EBDD"/>
<path d="M36.7061 81.2611V83.033" stroke="#684D45" stroke-width="2"/>
<path d="M46.0078 81.2611V83.033" stroke="#684D45" stroke-width="2"/>
<path d="M54.8682 81.2611V83.033" stroke="#684D45" stroke-width="2"/>
<path d="M63.7266 81.2611V83.033" stroke="#684D45" stroke-width="2"/>
<path d="M72.5869 81.2611V83.033" stroke="#684D45" stroke-width="2"/>
<circle cx="199.486" cy="53.9299" r="16.7679" fill="white" stroke="#684D45"/>
<circle cx="174.091" cy="160.583" r="11.6891" fill="white" stroke="#684D45"/>
<circle cx="222.847" cy="160.583" r="11.6891" fill="white" stroke="#684D45"/>
<rect x="176.622" y="87.9475" width="45.7248" height="25.4097" rx="12.7048" fill="white" stroke="#684D45"/>
<path d="M199.485 85.4194V73.2303" stroke="#684D45" stroke-width="3"/>
<path d="M199.485 129.099V115.894" stroke="#684D45" stroke-width="3"/>
<path d="M223.863 141.791V127.062" stroke="#684D45" stroke-width="3"/>
<path d="M174.092 141.791V127.062" stroke="#684D45" stroke-width="3"/>
<path d="M173.075 128.59H223.863" stroke="#684D45" stroke-width="3"/>
<rect x="57.7852" y="82.2109" width="64.424" height="78.6191" fill="white"/>
<rect x="65.4287" y="94.2197" width="22.9306" height="21.8386" fill="#684D45"/>
<path d="M65.9756 142.811H115.113M65.9756 127.524H115.113M65.9756 135.168H115.113" stroke="#684D45" stroke-width="2"/>
<path d="M96.0029 120.427H115.112" stroke="#684D45" stroke-width="2"/>
<path d="M96.0029 107.322H115.112" stroke="#684D45" stroke-width="2"/>
<path d="M96.0029 113.875H115.112" stroke="#684D45" stroke-width="2"/>
<path d="M96.0029 100.771H115.112" stroke="#684D45" stroke-width="2"/>
<path d="M96.0029 95.3131H115.112" stroke="#684D45" stroke-width="2"/>
<path fill-rule="evenodd" clip-rule="evenodd" d="M54.4587 153.106C48.886 153.898 44.5472 158.522 44.195 164.225H50.3447C50.5758 160.184 52.0133 156.312 54.4587 153.106ZM57.8648 153.106C60.3102 156.312 61.7477 160.184 61.9788 164.225H68.1283C67.7762 158.522 63.4374 153.898 57.8648 153.106ZM60.4762 164.225C60.23 160.241 58.7178 156.44 56.1618 153.376C53.6057 156.44 52.0935 160.241 51.8473 164.225H60.4762ZM51.8473 165.725H60.4763C60.2302 169.709 58.718 173.511 56.1618 176.575C53.6055 173.511 52.0933 169.709 51.8473 165.725ZM50.3446 165.725H44.1949C44.5467 171.429 48.8857 176.053 54.4587 176.845C52.0131 173.639 50.5756 169.767 50.3446 165.725ZM57.8648 176.845C60.3104 173.639 61.7479 169.767 61.9789 165.725H68.1284C67.7766 171.428 63.4377 176.053 57.8648 176.845ZM56.1617 178.465C63.6119 178.465 69.6514 172.426 69.6514 164.976C69.6514 157.525 63.6119 151.486 56.1617 151.486C48.7116 151.486 42.6721 157.525 42.6719 164.975V164.976C42.6719 172.426 48.7115 178.465 56.1617 178.465C56.1617 178.465 56.1617 178.465 56.1617 178.465Z" fill="#684D45"/>
<path d="M132.153 90.0582L131.987 90.2476V90.4994V94.3456C131.987 96.1847 130.496 97.6756 128.657 97.6756H126.621H124.586C122.747 97.6756 121.256 96.1847 121.256 94.3456V90.4994V90.276L121.122 90.0974L120.993 89.9256C119.906 88.4764 118.988 86.9076 118.258 85.2499L117.894 84.4244C115.097 78.0777 119.745 70.9502 126.681 70.9502C133.438 70.9502 138.081 77.7442 135.627 84.0399L135.31 84.8529C134.568 86.758 133.499 88.5193 132.153 90.0582Z" stroke="#684D45" stroke-width="1.34"/>
<path d="M126.31 88.0866V87.4166C126.228 87.4166 126.147 87.4317 126.07 87.4609L126.31 88.0866ZM126.924 90.2335C126.585 89.4551 126.193 88.3158 126.082 87.402C126.024 86.9322 126.055 86.6193 126.122 86.4539C126.15 86.3846 126.174 86.3684 126.178 86.3662C126.179 86.3649 126.21 86.3424 126.31 86.3424V85.0024C125.99 85.0024 125.683 85.0805 125.419 85.2616C125.157 85.4416 124.987 85.6896 124.882 85.9472C124.682 86.4356 124.686 87.0281 124.751 87.5641C124.885 88.6623 125.334 89.9372 125.695 90.7683L126.924 90.2335ZM126.07 87.4609C125.924 87.5169 125.845 87.5068 125.805 87.4955C125.759 87.4829 125.691 87.4481 125.603 87.3475C125.411 87.1262 125.233 86.7113 125.101 86.1448L123.796 86.4479C123.942 87.0768 124.181 87.7538 124.593 88.2271C124.807 88.4738 125.088 88.6869 125.445 88.7863C125.806 88.8871 126.182 88.8531 126.549 88.7123L126.07 87.4609ZM126.556 86.5885V87.2497H127.896V86.5885H126.556ZM126.389 87.4166H126.31V88.7566H126.389V87.4166ZM126.556 87.2497C126.556 87.3419 126.481 87.4166 126.389 87.4166V88.7566C127.221 88.7566 127.896 88.082 127.896 87.2497H126.556ZM126.31 86.3424C126.446 86.3424 126.556 86.4526 126.556 86.5885H127.896C127.896 85.7125 127.186 85.0024 126.31 85.0024V86.3424ZM125.101 86.1448C124.892 85.2443 125.496 84.287 126.549 83.8839L126.07 82.6325C124.591 83.1987 123.392 84.7077 123.796 86.4479L125.101 86.1448Z" fill="#684D45"/>
<path d="M121.793 90.5017H131.45V93.5195H121.793M121.793 95.9337H131.45" stroke="#684D45" stroke-width="1.34"/>
</svg>
