<svg width="14" height="16" viewBox="0 0 14 16" fill="none" xmlns="http://www.w3.org/2000/svg">
<path d="M2.61451 0C1.17155 0 0 1.13584 0 2.54309V13.1725C0 14.5798 1.17155 15.7226 2.61451 15.7226H11.0864C12.5366 15.7226 13.708 14.5798 13.708 13.1725V2.54309C13.708 1.13584 12.5364 0 11.0864 0H2.61451ZM2.61451 0.457166H11.0864C12.2794 0.457166 13.2366 1.38586 13.2366 2.54305V13.1725C13.2366 14.3297 12.2794 15.2584 11.0864 15.2584H2.61451C1.42158 15.2584 0.471531 14.3297 0.471531 13.1725V2.54305C0.471531 1.38583 1.42161 0.457166 2.61451 0.457166ZM2.60017 1.38586C2.21443 1.38586 1.89295 1.70016 1.89295 2.07872V5.31467C1.89295 5.69325 2.21442 6.00753 2.60017 6.00753H11.1077C11.5006 6.00753 11.815 5.69323 11.815 5.31467V2.07872C11.815 1.70014 11.5007 1.38586 11.1077 1.38586H2.60017ZM2.60017 1.85019H11.1077C11.2434 1.85019 11.3434 1.95018 11.3434 2.07871V5.31466C11.3434 5.45036 11.2434 5.55035 11.1077 5.55035H2.60017C2.46447 5.55035 2.36448 5.45037 2.36448 5.31466V2.07871C2.36448 1.95018 2.46446 1.85019 2.60017 1.85019ZM2.60017 6.9363C2.21443 6.9363 1.89295 7.2506 1.89295 7.62916V9.47925C1.89295 9.85782 2.21442 10.1721 2.60017 10.1721H5.43601C5.82175 10.1721 6.14324 9.8578 6.14324 9.47925V7.62916C6.14324 7.25058 5.82176 6.9363 5.43601 6.9363H2.60017ZM8.272 6.9363C7.88626 6.9363 7.56478 7.2506 7.56478 7.62916V9.47925C7.56478 9.85782 7.88625 10.1721 8.272 10.1721H11.1078C11.5007 10.1721 11.8151 9.8578 11.8151 9.47925V7.62916C11.8151 7.25058 11.5008 6.9363 11.1078 6.9363H8.272ZM2.60017 7.40063H5.43601C5.57171 7.40063 5.6717 7.49344 5.6717 7.62915V9.47923C5.6717 9.60777 5.57172 9.70775 5.43601 9.70775H2.60017C2.46447 9.70775 2.36448 9.60777 2.36448 9.47923V7.62915C2.36448 7.49345 2.46446 7.40063 2.60017 7.40063ZM8.272 7.40063H11.1078C11.2435 7.40063 11.3435 7.49344 11.3435 7.62915V9.47923C11.3435 9.60777 11.2435 9.70775 11.1078 9.70775H8.272C8.1363 9.70775 8.03631 9.60777 8.03631 9.47923V7.62915C8.03631 7.49345 8.13629 7.40063 8.272 7.40063ZM3.77882 7.8578V8.32213H3.30729V8.78646H3.77882V9.25079H4.25737V8.78646H4.7289V8.32213H4.25737V7.8578H3.77882ZM8.97904 8.32213V8.78646H10.4006V8.32213H8.97904ZM2.59981 11.1008C2.21407 11.1008 1.89259 11.4079 1.89259 11.7936V13.6437C1.89259 14.0223 2.21406 14.3366 2.59981 14.3366H5.43565C5.82139 14.3366 6.14288 14.0223 6.14288 13.6437V11.7936C6.14288 11.4079 5.82141 11.1008 5.43565 11.1008H2.59981ZM8.27164 11.1008C7.8859 11.1008 7.56441 11.4079 7.56441 11.7936V13.6437C7.56441 14.0223 7.88589 14.3366 8.27164 14.3366H11.1075C11.5004 14.3366 11.8147 14.0223 11.8147 13.6437V11.7936C11.8147 11.4079 11.5004 11.1008 11.1075 11.1008H8.27164ZM2.59981 11.5579H5.43565C5.57136 11.5579 5.67134 11.6579 5.67134 11.7936V13.6437C5.67134 13.7722 5.57136 13.8722 5.43565 13.8722H2.59981C2.46411 13.8722 2.36412 13.7722 2.36412 13.6437V11.7936C2.36412 11.6579 2.4641 11.5579 2.59981 11.5579ZM8.27164 11.5579H11.1075C11.2432 11.5579 11.3432 11.6579 11.3432 11.7936V13.6437C11.3432 13.7722 11.2432 13.8722 11.1075 13.8722H8.27164C8.13594 13.8722 8.03595 13.7722 8.03595 13.6437V11.7936C8.03595 11.6579 8.13593 11.5579 8.27164 11.5579ZM3.67838 12.058L3.3427 12.3867L3.68555 12.7153L3.3427 13.0439L3.67838 13.3654L4.00702 13.0368L4.34986 13.3654L4.68553 13.0439L4.34986 12.7153L4.68553 12.3867L4.34986 12.058L4.00702 12.3867L3.67838 12.058ZM8.97868 12.1366V12.601H10.4003V12.1366H8.97868ZM8.97868 12.8295V13.2938H10.4003V12.8295H8.97868Z" fill="#684D45"/>
</svg>
