<svg width="22" height="22" viewBox="0 0 22 22" fill="none" xmlns="http://www.w3.org/2000/svg">
<path d="M4.87566 13.2948L4.10988 16.1536L1.31093 16.2128C0.474461 14.6614 0 12.8863 0 11C0 9.17589 0.443609 7.45577 1.22994 5.94116H1.23054L3.72238 6.39801L4.81396 8.8749C4.5855 9.54096 4.46097 10.256 4.46097 11C4.46106 11.8074 4.60732 12.5811 4.87566 13.2948Z" fill="#FBBB00"/>
<path d="M21.8082 8.94507C21.9345 9.61048 22.0004 10.2977 22.0004 11C22.0004 11.7875 21.9176 12.5557 21.7598 13.2967C21.2243 15.8183 19.8252 18.0201 17.8869 19.5782L17.8863 19.5776L14.7477 19.4175L14.3035 16.6445C15.5896 15.8902 16.5947 14.7098 17.1242 13.2967H11.2422V8.94507H17.21H21.8082Z" fill="#518EF8"/>
<path d="M17.8855 19.5776L17.8861 19.5782C16.001 21.0934 13.6064 22 10.9996 22C6.81055 22 3.16847 19.6586 1.31055 16.2129L4.87528 13.2949C5.80422 15.7741 8.19582 17.539 10.9996 17.539C12.2048 17.539 13.3338 17.2132 14.3026 16.6445L17.8855 19.5776Z" fill="#28B446"/>
<path d="M18.0208 2.53241L14.4573 5.44981C13.4546 4.82307 12.2694 4.46102 10.9996 4.46102C8.1323 4.46102 5.69597 6.30682 4.81356 8.87494L1.23009 5.9412H1.22949C3.06022 2.41154 6.74823 0 10.9996 0C13.6686 0 16.1158 0.950727 18.0208 2.53241Z" fill="#F14336"/>
</svg>
