<svg width="23" height="25" viewBox="0 0 23 25" fill="none" xmlns="http://www.w3.org/2000/svg">
<path d="M19 24H4C2.34315 24 1 22.6569 1 21V10.922C1 10.0798 1.35407 9.27628 1.97569 8.70794L9.47569 1.8508C10.6218 0.802911 12.3782 0.802912 13.5243 1.8508L21.0243 8.70794C21.6459 9.27628 22 10.0798 22 10.922V21C22 22.6569 20.6569 24 19 24Z" stroke="#684D45" stroke-width="1.3"/>
<path d="M1.5 10.35C1.14101 10.35 0.85 10.641 0.85 11C0.85 11.359 1.14101 11.65 1.5 11.65V10.35ZM22 11.65C22.359 11.65 22.65 11.359 22.65 11C22.65 10.641 22.359 10.35 22 10.35V11.65ZM9.15 24V20H7.85V24H9.15ZM13.85 20V23.5H15.15V20H13.85ZM1.5 11.65H22V10.35H1.5V11.65ZM11.5 17.65C12.7979 17.65 13.85 18.7021 13.85 20H15.15C15.15 17.9842 13.5158 16.35 11.5 16.35V17.65ZM9.15 20C9.15 18.7021 10.2021 17.65 11.5 17.65V16.35C9.48416 16.35 7.85 17.9842 7.85 20H9.15Z" fill="#684D45"/>
</svg>
