<svg width="28" height="36" viewBox="0 0 28 36" fill="none" xmlns="http://www.w3.org/2000/svg">
<path fill-rule="evenodd" clip-rule="evenodd" d="M27.6976 17.221C25.8981 15.3223 23.4965 14.019 20.9957 13.5228C19.8975 13.2184 18.7992 13.02 17.6944 12.9207C20.4929 9.61938 19.9967 4.62438 16.6954 1.81925C13.4007 -0.979278 8.39905 -0.47647 5.60052 2.82486C2.802 6.11958 3.29819 11.1212 6.59952 13.9197C7.20157 14.4159 7.797 14.8195 8.39905 15.018V17.221L6.798 15.7192C5.40205 14.3167 3.09971 14.3167 1.59791 15.7192C0.201952 17.1218 0.102714 19.3183 1.49867 20.7209L6.09671 26.1194C6.30181 27.5154 6.798 28.8187 7.49928 30.0162C8.00209 30.916 8.69676 31.8157 9.39805 32.517V34.4158C9.39805 35.0112 9.80162 35.4148 10.397 35.4148H23.9927C24.4955 35.4148 24.9983 34.9119 24.9983 34.4158V31.8157C26.8971 29.5134 27.8961 26.6156 27.8961 23.7179V17.9157C27.9953 17.5188 27.8961 17.3203 27.6976 17.221ZM5.69976 7.81986C5.69976 4.51853 8.39905 1.9251 11.7004 2.02434C14.9951 2.02434 17.5951 4.72362 17.4959 8.01834C17.4959 9.81786 16.6954 11.4189 15.2994 12.5171V7.52215C15.2465 6.65546 14.8694 5.84171 14.2343 5.24628C13.5991 4.65085 12.7655 4.32005 11.8989 4.32005C10.0993 4.22082 8.49828 5.72262 8.49828 7.52215V12.7222C6.798 11.7166 5.799 9.81786 5.69976 7.81986ZM25.9973 23.6186C26.0966 26.2187 25.1968 28.7129 23.4965 30.7175C23.298 30.916 23.0929 31.1144 23.0929 31.4121V33.516H11.4953V32.1134C11.4953 31.8157 11.2968 31.518 11.0983 31.3129C10.397 30.7175 9.80162 30.0162 9.29881 29.1164C8.69676 28.1174 8.29981 26.9133 8.10133 25.7159C8.10133 25.5174 8.00209 25.3189 7.89624 25.1138L3.09971 19.4175C2.802 19.1198 2.60352 18.7162 2.60352 18.22C2.60352 17.8165 2.802 17.3203 3.09971 17.016C3.801 16.4205 4.8 16.4205 5.50128 17.016L8.39905 19.9203V22.9173L10.2978 21.9183V7.52215C10.397 6.82086 10.9991 6.21882 11.7996 6.31805C12.5009 6.31805 13.1956 6.82086 13.1956 7.52215V19.0206L15.2002 19.4175V14.8195C15.2994 14.7202 15.3987 14.7202 15.4979 14.621C16.1992 14.621 16.8939 14.7202 17.5951 14.8195V19.9203L19.1962 20.218V15.018L20.3937 15.3223C20.8965 15.4215 21.3993 15.62 21.8955 15.8185V20.8201L23.4965 21.1178V16.5198C24.3963 16.9167 25.1968 17.5188 25.8981 18.22L25.9973 23.6186Z" fill="#191919"/>
<path fill-rule="evenodd" clip-rule="evenodd" d="M21.8956 20.8202V15.8186C21.3994 15.6201 20.8966 15.4217 20.3938 15.3158L19.1963 15.0181V20.2182L17.5953 19.9205V14.8196C16.894 14.7204 16.1993 14.6211 15.498 14.6211C15.3988 14.7204 15.2995 14.7204 15.2003 14.8196V19.4177L13.1957 19.0207V7.52228C13.1957 6.821 12.501 6.31819 11.7997 6.31819C10.9992 6.21895 10.3972 6.821 10.2979 7.52228V21.9185L8.39916 22.9175V19.9205L5.5014 17.0161C4.80011 16.4207 3.80111 16.4207 3.09983 17.0161C2.80211 17.3204 2.60364 17.8166 2.60364 18.2202C2.60364 18.7164 2.80211 19.1199 3.09983 19.4177L7.89635 25.1139C8.00221 25.319 8.10145 25.5175 8.10145 25.716C8.29992 26.9135 8.69688 28.1176 9.29892 29.1166C9.80173 30.0163 10.3972 30.7176 11.0984 31.313C11.2969 31.5181 11.4954 31.8158 11.4954 32.1136V33.5161H23.0931V31.4123C23.0931 31.1146 23.2982 30.9161 23.4966 30.7176C25.1969 28.713 26.0967 26.2188 25.9974 23.6188L25.8982 18.2202C25.1969 17.5189 24.3964 16.9169 23.4966 16.5199V21.1179L21.8956 20.8202Z" fill="#FEFEFE"/>
<path fill-rule="evenodd" clip-rule="evenodd" d="M8.49811 7.52186C8.49811 5.72234 10.0992 4.22053 11.8987 4.31977C12.7654 4.31977 13.599 4.65057 14.2341 5.246C14.8626 5.84143 15.2463 6.65518 15.2992 7.52186V12.5169C16.6952 11.4186 17.4957 9.81758 17.4957 8.01806C17.595 4.72334 14.9949 2.02406 11.7002 2.02406C8.39887 1.92482 5.69958 4.51825 5.69958 7.81958C5.79882 9.81758 6.79782 11.723 8.49811 12.722V7.52186Z" fill="#FEFEFE"/>
</svg>
