<svg width="42" height="42" viewBox="0 0 42 42" fill="none" xmlns="http://www.w3.org/2000/svg">
<circle cx="21" cy="21" r="21" fill="#F5EBDD"/>
<path d="M21.263 11.136C20.393 11.136 19.6777 10.8847 19.117 10.382C18.5757 9.86 18.305 9.222 18.305 8.468C18.305 7.69467 18.5757 7.05667 19.117 6.554C19.6777 6.032 20.393 5.771 21.263 5.771C22.1137 5.771 22.8097 6.032 23.351 6.554C23.9117 7.05667 24.192 7.69467 24.192 8.468C24.192 9.222 23.9117 9.86 23.351 10.382C22.8097 10.8847 22.1137 11.136 21.263 11.136ZM23.757 31.088C23.757 33.0793 23.2543 34.51 22.249 35.38C21.2437 36.2693 19.842 36.714 18.044 36.714H16.101V32.509H17.29C17.8313 32.509 18.218 32.4027 18.45 32.19C18.682 31.9773 18.798 31.6293 18.798 31.146V12.818H23.757V31.088Z" fill="#684D45"/>
</svg>
