<svg width="28" height="33" viewBox="0 0 28 33" fill="none" xmlns="http://www.w3.org/2000/svg">
<path d="M27.4299 7.25567L20.8461 0.671893C20.7471 0.565349 20.6075 0.505587 20.462 0.507299H4.47413C3.91348 0.510238 3.37633 0.734351 2.9798 1.13065C2.5835 1.52719 2.35939 2.06435 2.35645 2.62498V13.1264C2.35645 13.4294 2.60211 13.6751 2.90509 13.6751C3.20807 13.6751 3.45374 13.4294 3.45374 13.1264V2.62498C3.45374 2.35433 3.56126 2.09495 3.75256 1.9034C3.94409 1.7121 4.20348 1.60458 4.47414 1.60458H19.9134V7.63971C19.9134 7.7852 19.9712 7.92481 20.0741 8.02768C20.1769 8.13055 20.3166 8.18835 20.462 8.18835H26.4972V30.2114C26.4972 30.482 26.3896 30.7414 26.1984 30.933C26.0068 31.1243 25.7474 31.2318 25.4768 31.2318H4.47454C4.20389 31.2318 3.94451 31.1243 3.75296 30.933C3.56166 30.7414 3.45414 30.482 3.45414 30.2114V27.3912C3.45414 27.0882 3.20847 26.8426 2.90549 26.8426C2.60252 26.8426 2.35685 27.0882 2.35685 27.3912V30.2114C2.35979 30.772 2.5839 31.3092 2.9802 31.7057C3.37674 32.102 3.9139 32.3261 4.47453 32.3291H25.4768C26.0374 32.3261 26.5746 32.102 26.9711 31.7057C27.3674 31.3092 27.5915 30.772 27.5944 30.2114V7.63971C27.5962 7.49422 27.5364 7.3546 27.4298 7.25565L27.4299 7.25567ZM21.0104 2.38374L25.7177 7.09107H21.0104V2.38374Z" fill="white"/>
<path d="M13.372 18.4455C13.0293 18.2863 12.6514 18.2182 12.2747 18.2481H11.0566V20.2892H12.2637V20.2889C12.6472 20.3276 13.033 20.239 13.361 20.0366C13.5753 19.8233 13.6838 19.5257 13.6573 19.2247C13.6928 18.9342 13.5868 18.6445 13.372 18.4456L13.372 18.4455Z" fill="white"/>
<path d="M23.2056 23.9682V16.5505C23.2085 16.078 23.0221 15.6242 22.6883 15.29C22.3542 14.9562 21.9004 14.7698 21.4278 14.7727H1.93989C1.46741 14.7698 1.01358 14.9562 0.67944 15.29C0.345599 15.6241 0.159203 16.078 0.162144 16.5505V23.9682V23.968C0.159204 24.4404 0.345599 24.8943 0.67944 25.2284C1.01353 25.5622 1.46736 25.7486 1.93989 25.7457H21.4278C21.9003 25.7486 22.3542 25.5622 22.6883 25.2284C23.0221 24.8943 23.2085 24.4405 23.2056 23.968V23.9682ZM8.57896 20.5776C8.62623 21.2808 8.37983 21.972 7.89851 22.4869C7.43339 22.9317 6.8078 23.1692 6.16491 23.1452C5.51807 23.1709 4.8886 22.9334 4.42002 22.4869C3.93873 21.972 3.69255 21.2808 3.73983 20.5776V17.3736H4.70532V20.5337C4.68034 20.9849 4.82068 21.4297 5.1004 21.7846C5.3708 22.1057 5.77909 22.2771 6.19769 22.2455C6.61628 22.2771 7.02461 22.1057 7.29499 21.7846C7.5747 21.4297 7.71504 20.9849 7.69006 20.5337V17.3736H8.65556L8.57896 20.5776ZM13.6924 23.0904L12.3318 21.1701H11.0587V23.0904H10.0932V17.3736H12.2219C12.8783 17.3141 13.5364 17.4679 14.0983 17.8126C14.5015 18.1677 14.7128 18.6926 14.669 19.228C14.7082 19.6248 14.6051 20.0226 14.378 20.3503C14.1507 20.678 13.8144 20.9143 13.4289 21.0165L14.9761 23.0903L13.6924 23.0904ZM19.6288 23.0904H16.0734V17.3736H17.0389V22.1797H19.6504L19.6288 23.0904Z" fill="white"/>
</svg>
