<svg width="24" height="30" viewBox="0 0 24 30" fill="none" xmlns="http://www.w3.org/2000/svg">
<path d="M23.8435 6.36206L17.5826 0.155205C17.4885 0.0547604 17.3558 -0.00158004 17.2174 3.37402e-05H2.0138C1.48065 0.00280466 0.969854 0.214087 0.592774 0.587698C0.215915 0.96154 0.0027965 1.46795 0 1.99648V26.0832C0 26.3688 0.233618 26.6004 0.521734 26.6004C0.809851 26.6004 1.04347 26.3688 1.04347 26.0832V1.99648C1.04347 1.74132 1.14572 1.49679 1.32763 1.31621C1.50977 1.13586 1.75643 1.0345 2.01381 1.0345H16.6957V6.72411C16.6957 6.86127 16.7507 6.99289 16.8485 7.08987C16.9463 7.18685 17.0791 7.24135 17.2174 7.24135H22.9565V28.0036C22.9565 28.2587 22.8543 28.5032 22.6724 28.6838C22.4902 28.8642 22.2436 28.9655 21.9862 28.9655H2.01419C1.75682 28.9655 1.51016 28.8642 1.32801 28.6838C1.1461 28.5033 1.04385 28.2587 1.04385 28.0036V25.3448C1.04385 25.0592 0.810233 24.8276 0.522116 24.8276C0.234 24.8276 0.000382113 25.0592 0.000382113 25.3448V28.0036C0.00317712 28.5321 0.216297 29.0385 0.593156 29.4123C0.970248 29.7859 1.48106 29.9972 2.01418 30H21.9862C22.5193 29.9972 23.0301 29.7859 23.4072 29.4123C23.7841 29.0385 23.9972 28.5321 24 28.0036V6.72411C24.0016 6.58695 23.9448 6.45534 23.8435 6.36206ZM17.7389 1.76905L22.2153 6.20689H17.7389V1.76905Z" fill="white"/>
</svg>
