<svg width="32" height="32" viewBox="0 0 32 32" fill="none" xmlns="http://www.w3.org/2000/svg">
<path d="M31.4548 26.87L24.8931 20.3035C23.6287 19.0382 21.5779 19.0378 20.313 20.3026C19.0485 21.5672 19.0485 23.6173 20.313 24.8819L26.8812 31.45C27.6081 32.1769 28.8046 32.1769 29.5314 31.45L31.4548 29.5266C32.1818 28.7933 32.1818 27.5904 31.4548 26.87Z" fill="#B7B7B7"/>
<path d="M17.0229 19.4189C17.6855 20.0815 18.7597 20.0815 19.4223 19.4189V19.4189C20.0849 18.7564 20.0849 17.6821 19.4223 17.0196L19.1327 16.73C18.4122 16.0095 18.3359 14.8846 18.7528 13.9548C20.3289 10.4405 19.6789 6.16698 16.7946 3.28263C13.0701 -0.441868 7.01696 -0.441868 3.28602 3.28263C-0.444911 7.00714 -0.438478 13.0603 3.28602 16.7912C6.17037 19.6755 10.4439 20.3255 13.9582 18.7494C14.888 18.3325 16.0129 18.4089 16.7334 19.1293L17.0229 19.4189ZM5.13863 14.9129C2.43691 12.2111 2.43691 7.83052 5.13863 5.13524C7.84034 2.43353 12.221 2.43353 14.9162 5.13524C17.618 7.83695 17.618 12.2176 14.9162 14.9129C12.221 17.6146 7.84034 17.6146 5.13863 14.9129Z" fill="#B7B7B7"/>
</svg>
