<svg width="512" height="581" viewBox="0 0 512 581" fill="none" xmlns="http://www.w3.org/2000/svg">
<path opacity="0.78" d="M131.646 132.083H75.0664C58.4979 132.083 45.0664 145.514 45.0664 162.083V423.375C45.0664 439.943 58.4979 453.375 75.0664 453.375H309.184C320.736 453.375 330.101 444.009 330.101 432.457C330.101 420.905 339.466 411.54 351.019 411.54H417.797C434.365 411.54 447.797 398.108 447.797 381.54V236.27C447.797 219.701 434.365 206.27 417.797 206.27H356.197C339.628 206.27 326.197 192.838 326.197 176.27V31C326.197 14.4315 312.765 1 296.197 1H191.646C175.078 1 161.646 14.4315 161.646 31V76.3028V82.4386V102.083C161.646 118.651 148.215 132.083 131.646 132.083Z" fill="#F5EBDD" stroke="#684D45"/>
<path d="M70.167 385.58V361.418V197.39C70.167 177.508 86.2847 161.39 106.167 161.39H177.696C197.579 161.39 213.696 145.273 213.696 125.39V69.3523C213.696 49.47 229.814 33.3523 249.696 33.3523H389.446C409.329 33.3523 425.446 49.47 425.446 69.3523V142.86C425.446 142.87 425.455 142.879 425.465 142.879C425.476 142.879 425.485 142.887 425.485 142.898V323.361C425.485 343.243 409.367 359.361 389.485 359.361H366.528H274.608H273.344C256.927 359.361 249.371 379.785 261.835 390.47C274.299 401.156 266.742 421.58 250.325 421.58H172.941H106.167C86.2847 421.58 70.167 405.462 70.167 385.58Z" fill="#E8CD94"/>
<path d="M70.167 385.58V361.418V197.39C70.167 177.508 86.2847 161.39 106.167 161.39H177.696C197.579 161.39 213.696 145.273 213.696 125.39V69.3523C213.696 49.47 229.814 33.3523 249.696 33.3523H389.446C409.329 33.3523 425.446 49.47 425.446 69.3523V142.86C425.446 142.87 425.455 142.879 425.465 142.879C425.476 142.879 425.485 142.887 425.485 142.898V323.361C425.485 343.243 409.367 359.361 389.485 359.361H366.528H274.608H273.344C256.927 359.361 249.371 379.785 261.835 390.47C274.299 401.156 266.742 421.58 250.325 421.58H172.941H106.167C86.2847 421.58 70.167 405.462 70.167 385.58Z" stroke="#684D45"/>
<path fill-rule="evenodd" clip-rule="evenodd" d="M362.38 230.501C362.43 230.971 362.457 231.448 362.457 231.931C362.457 232.414 362.43 232.891 362.38 233.36L359.427 234.662C359.178 235.606 358.803 236.498 358.322 237.322L359.491 240.331C358.89 241.075 358.212 241.754 357.468 242.354L354.458 241.186C353.635 241.666 352.743 242.041 351.799 242.29L350.497 245.243C350.028 245.293 349.551 245.32 349.068 245.32C348.585 245.32 348.108 245.293 347.638 245.243L346.337 242.289C345.393 242.041 344.5 241.666 343.677 241.186L340.668 242.354C339.924 241.753 339.245 241.075 338.645 240.331L339.813 237.322C339.332 236.498 338.957 235.606 338.709 234.662L335.756 233.361C335.705 232.891 335.679 232.414 335.679 231.931C335.679 231.448 335.705 230.971 335.756 230.501L338.708 229.2C338.957 228.256 339.332 227.363 339.813 226.54L338.644 223.531C339.245 222.786 339.923 222.108 340.667 221.508L343.676 222.676C344.5 222.195 345.392 221.82 346.336 221.572L347.638 218.619C348.108 218.569 348.585 218.542 349.068 218.542C349.551 218.542 350.028 218.569 350.497 218.619L351.799 221.572C352.743 221.82 353.635 222.195 354.458 222.676L357.468 221.508C358.212 222.108 358.89 222.786 359.491 223.531L358.322 226.54C358.803 227.364 359.178 228.256 359.426 229.2L362.38 230.501ZM349.068 227.198C346.454 227.198 344.335 229.317 344.335 231.931C344.335 234.545 346.454 236.664 349.068 236.664C351.682 236.664 353.801 234.545 353.801 231.931C353.801 229.317 351.682 227.198 349.068 227.198Z" fill="#F5EBDD"/>
<path fill-rule="evenodd" clip-rule="evenodd" d="M374.686 221.911C374.531 222.182 374.36 222.448 374.173 222.706C373.986 222.965 373.786 223.21 373.578 223.442L371.491 222.994C370.992 223.403 370.446 223.735 369.869 223.99L369.328 226.054C368.718 226.22 368.091 226.32 367.46 226.353L366.302 224.56C365.675 224.498 365.052 224.353 364.45 224.12L362.608 225.197C362.337 225.042 362.071 224.871 361.813 224.684C361.554 224.497 361.309 224.297 361.077 224.088L361.525 222.002C361.116 221.503 360.784 220.956 360.529 220.38L358.465 219.839C358.299 219.229 358.199 218.602 358.166 217.971L359.958 216.813C360.02 216.185 360.165 215.562 360.398 214.961L359.322 213.119C359.477 212.848 359.648 212.582 359.835 212.323C360.022 212.065 360.221 211.82 360.43 211.588L362.516 212.036C363.015 211.627 363.562 211.294 364.139 211.04L364.68 208.975C365.29 208.81 365.916 208.71 366.547 208.677L367.706 210.469C368.333 210.531 368.956 210.676 369.558 210.909L371.4 209.832C371.671 209.988 371.937 210.158 372.195 210.346C372.454 210.533 372.699 210.732 372.931 210.941L372.483 213.027C372.892 213.526 373.224 214.073 373.479 214.65L375.543 215.191C375.709 215.801 375.809 216.427 375.842 217.058L374.049 218.217C373.987 218.844 373.842 219.467 373.609 220.069L374.686 221.911ZM368.839 214.981C367.44 213.967 365.483 214.28 364.47 215.68C363.456 217.079 363.769 219.036 365.169 220.049C366.569 221.063 368.525 220.75 369.538 219.35C370.552 217.95 370.239 215.994 368.839 214.981Z" fill="#F5EBDD"/>
<path fill-rule="evenodd" clip-rule="evenodd" d="M302.172 80.2301C302.017 80.5009 301.847 80.7666 301.659 81.0254C301.472 81.2839 301.273 81.529 301.064 81.7609L298.978 81.3128C298.479 81.722 297.932 82.0539 297.355 82.3087L296.814 84.3733C296.204 84.5388 295.578 84.639 294.947 84.6721L293.788 82.8795C293.161 82.8174 292.538 82.6725 291.936 82.4394L290.094 83.5162C289.823 83.3607 289.558 83.1903 289.299 83.003C289.04 82.8156 288.795 82.6163 288.563 82.4076L289.012 80.3214C288.602 79.8225 288.27 79.2755 288.016 78.6992L285.951 78.1579C285.786 77.5478 285.685 76.9215 285.652 76.2902L287.445 75.132C287.506 74.5046 287.652 73.8815 287.885 73.2798L286.808 71.4378C286.963 71.1669 287.134 70.901 287.321 70.6424C287.509 70.3837 287.708 70.1389 287.917 69.9068L290.002 70.3551C290.501 69.9457 291.048 69.6134 291.625 69.3588L292.166 67.2946C292.776 67.1288 293.402 67.0288 294.034 66.9957L295.192 68.7879C295.819 68.8497 296.443 68.995 297.044 69.228L298.886 68.1515C299.157 68.307 299.423 68.4775 299.682 68.6648C299.94 68.8522 300.185 69.0513 300.417 69.2602L299.969 71.3462C300.379 71.8453 300.711 72.3919 300.965 72.9687L303.029 73.5098C303.195 74.1199 303.295 74.7461 303.328 75.3775L301.536 76.536C301.474 77.163 301.329 77.7862 301.096 78.388L302.172 80.2301ZM296.325 73.2998C294.926 72.2863 292.97 72.5993 291.956 73.9988C290.943 75.3983 291.256 77.3546 292.655 78.3681C294.055 79.3817 296.011 79.0687 297.025 77.6692C298.038 76.2693 297.725 74.3132 296.325 73.2998Z" fill="#F5EBDD"/>
<path d="M236.949 366.916H17.8509L1 405.404V409.866H255.914V405.404L236.949 366.916Z" fill="white"/>
<path d="M212.425 381.418C211.309 380.302 207.298 378.741 204.62 381.418C201.273 384.765 202.385 398.152 212.425 395.363" stroke="#684D45"/>
<path d="M212.429 381.418C211.57 380.387 209.109 378.999 207.048 381.474C204.471 384.569 204.471 397.977 212.2 395.399" stroke="#684D45"/>
<path d="M228.105 375.282C228.105 375.37 228.015 375.608 227.439 375.932C226.905 376.233 226.098 376.521 225.059 376.768C222.987 377.261 220.099 377.571 216.892 377.571C213.684 377.571 210.796 377.261 208.724 376.768C207.685 376.521 206.878 376.233 206.344 375.932C205.768 375.608 205.678 375.37 205.678 375.282C205.678 375.195 205.768 374.956 206.344 374.633C206.878 374.332 207.685 374.044 208.724 373.797C210.796 373.303 213.684 372.993 216.892 372.993C220.099 372.993 222.987 373.303 225.059 373.797C226.098 374.044 226.905 374.332 227.439 374.633C228.015 374.956 228.105 375.195 228.105 375.282Z" stroke="#684D45"/>
<ellipse cx="217.45" cy="375.84" rx="10.0404" ry="1.1156" fill="#684D45"/>
<path d="M228.047 397.594C228.047 399.135 223.361 400.383 216.891 400.383C210.422 400.383 205.735 399.135 205.735 397.594" stroke="#684D45"/>
<path d="M228.047 375.282V398.152M205.735 375.282V380.303M205.735 398.152V394.248" stroke="#684D45"/>
<path d="M90.8061 256.522C97.3891 245.001 94.8002 230.244 97.8966 216.494C98.0002 216.034 98.0807 215.573 98.2007 215.117C99.0834 211.762 104.495 197.51 126.505 198.511C146.14 199.403 150.491 206.32 152.164 209.667C154.849 215.036 158.114 229.375 157.742 236.999C157.37 239.602 157.184 246.481 159.415 253.175C161.542 259.556 162.487 267.796 162.731 271.612C162.754 271.966 162.753 272.324 162.604 272.645C161.768 274.446 157.564 278.304 145.47 282.738C133.379 287.172 104.905 282.535 88.4094 278.855C85.5868 278.226 83.7007 275.617 84.3506 272.799C85.3173 268.607 87.2648 262.719 90.8061 256.522Z" fill="#684D45"/>
<path d="M66.2815 354.003L74.6297 361.388L71.8407 325.131H178.938L177.822 342.422L176.149 365.85L196.449 354.008C200.558 351.611 203.413 347.537 204.264 342.857C204.844 339.665 204.458 336.373 203.154 333.402L183.204 287.941C175.867 271.223 159.338 260.426 141.081 260.426H117.663C99.0447 260.426 82.2626 271.649 75.1508 288.855L69.6095 302.261L60.7383 335.659C60.3324 337.186 60.127 338.76 60.127 340.341C60.127 345.566 62.3679 350.541 66.2815 354.003Z" fill="#988B8B"/>
<path d="M93.5955 311.185C90.9181 317.433 86.9019 323.085 85.2285 325.13H98.6157C98.0579 317.879 96.2729 304.938 93.5955 311.185Z" fill="#887272"/>
<path d="M161.228 304.188C165.467 313.57 171.826 322.059 174.476 325.13H153.279C154.162 314.24 156.989 294.806 161.228 304.188Z" fill="#887272"/>
<path d="M116.278 263.495C125.079 264.095 136.356 263.437 141.896 262.682C142.688 262.574 143.274 263.511 142.803 264.157C136.165 273.272 122.802 276.387 115.054 268.196C112.282 265.266 111.769 263.187 116.278 263.495Z" fill="#887272"/>
<path d="M147.143 238.622C147.143 249.712 137.903 265.396 126.505 265.396C115.106 265.396 105.866 249.712 105.866 238.622C105.866 227.532 115.106 218.541 126.505 218.541C137.903 218.541 147.143 227.532 147.143 238.622Z" fill="#D9D9D9"/>
<path d="M77.4368 389.186L72.5429 325.781H178.242L173.892 389.186H80.1644H77.4368Z" fill="white" stroke="#684D45" stroke-width="1.3"/>
<path d="M134.93 357.484C134.93 358.774 134.037 360.033 132.399 360.997C130.773 361.954 128.493 362.561 125.947 362.561C123.402 362.561 121.122 361.954 119.496 360.997C117.858 360.033 116.965 358.774 116.965 357.484C116.965 356.193 117.858 354.934 119.496 353.97C121.122 353.013 123.402 352.406 125.947 352.406C128.493 352.406 130.773 353.013 132.399 353.97C134.037 354.934 134.93 356.193 134.93 357.484Z" stroke="#684D45"/>
<path d="M7.13548 578.04V414.379H19.9648L11.1423 578.148C11.085 579.212 10.2057 580.045 9.14032 580.045C8.03308 580.045 7.13548 579.147 7.13548 578.04Z" fill="white" stroke="#684D45"/>
<path d="M250.336 578.04V414.379H237.507L246.329 578.148C246.387 579.212 247.266 580.045 248.331 580.045C249.439 580.045 250.336 579.147 250.336 578.04Z" fill="white" stroke="#684D45"/>
<path d="M20.5231 535.523V414.379H30.5635L23.6632 535.612C23.6159 536.444 22.9276 537.094 22.0944 537.094C21.2266 537.094 20.5231 536.391 20.5231 535.523Z" fill="white" stroke="#684D45"/>
<path d="M236.949 535.523V414.379H226.908L233.808 535.612C233.856 536.444 234.544 537.094 235.377 537.094C236.245 537.094 236.949 536.391 236.949 535.523Z" fill="white" stroke="#684D45"/>
<path d="M238.049 368.64L255.914 404.896V410.379C255.914 412.588 254.123 414.379 251.914 414.379H249.778H5C2.79086 414.379 1 412.588 1 410.379V404.896L16.6883 368.813C17.3232 367.353 18.764 366.408 20.3565 366.408H75.1872L77.0653 385.617C77.2656 387.666 78.988 389.228 81.0464 389.228H170.29C172.348 389.228 174.07 387.666 174.271 385.617L176.149 366.408H228.582H234.461C235.984 366.408 237.375 367.274 238.049 368.64Z" fill="white"/>
<path d="M255.914 404.896L238.049 368.64C237.375 367.274 235.984 366.408 234.461 366.408H228.582H176.149L174.271 385.617C174.07 387.666 172.348 389.228 170.29 389.228H81.0464C78.988 389.228 77.2656 387.666 77.0653 385.617L75.1872 366.408H20.3565C18.764 366.408 17.3232 367.353 16.6883 368.813L1 404.896M255.914 404.896V410.379C255.914 412.588 254.123 414.379 251.914 414.379H249.778H5C2.79086 414.379 1 412.588 1 410.379V404.896M255.914 404.896V404.896C254.504 406.659 252.369 407.685 250.111 407.685H128.178H4.93816C3.53311 407.685 2.23108 406.948 1.50819 405.743L1 404.896M249.778 580.045H245.874" stroke="#684D45"/>
<path d="M209.078 381.418C207.963 380.302 203.951 378.741 201.274 381.418C197.927 384.765 199.038 398.152 209.078 395.363" stroke="#684D45"/>
<path d="M209.083 381.418C208.224 380.387 205.762 378.999 203.701 381.474C201.125 384.569 201.125 397.977 208.854 395.399" stroke="#684D45"/>
<path d="M224.759 375.282C224.759 375.37 224.668 375.608 224.093 375.932C223.558 376.233 222.752 376.521 221.712 376.768C219.64 377.261 216.752 377.571 213.545 377.571C210.337 377.571 207.45 377.261 205.378 376.768C204.338 376.521 203.531 376.233 202.997 375.932C202.422 375.608 202.331 375.37 202.331 375.282C202.331 375.195 202.422 374.956 202.997 374.633C203.531 374.332 204.338 374.044 205.378 373.797C207.45 373.303 210.337 372.993 213.545 372.993C216.752 372.993 219.64 373.303 221.712 373.797C222.752 374.044 223.558 374.332 224.093 374.633C224.668 374.956 224.759 375.195 224.759 375.282Z" stroke="#684D45"/>
<ellipse cx="214.103" cy="375.84" rx="10.0404" ry="1.1156" fill="#684D45"/>
<path d="M224.701 397.594C224.701 399.135 220.014 400.383 213.545 400.383C207.075 400.383 202.389 399.135 202.389 397.594" stroke="#684D45"/>
<path d="M224.701 375.282V398.152M202.389 375.282V380.303M202.389 398.152V394.248" stroke="#684D45"/>
<path d="M17.2313 389.653L35.8849 375.247M17.2313 389.653H62.605M17.2313 389.653V392.226H62.605M17.2313 389.653C16.0214 387.595 13.3661 387.767 12.1898 388.11M35.8849 375.247C36.053 374.046 35.7841 371.851 33.3642 372.674C30.9443 373.497 18.2396 383.308 12.1898 388.11M35.8849 375.247H70.1673M12.1898 388.11C11.8537 392.055 13.9039 398.401 24.7936 392.226M62.605 389.653L70.1673 375.247M62.605 389.653V392.226M70.1673 375.247V377.819L62.605 392.226" stroke="#684D45"/>
<path d="M71.3406 373.659C71.3406 373.868 71.1888 374.177 70.6402 374.548C70.1091 374.906 69.3076 375.249 68.2724 375.545C66.2087 376.135 63.3286 376.506 60.1269 376.506C56.9251 376.506 54.045 376.135 51.9813 375.545C50.9461 375.249 50.1446 374.906 49.6135 374.548C49.0649 374.177 48.9131 373.868 48.9131 373.659C48.9131 373.451 49.0649 373.141 49.6135 372.771C50.1446 372.412 50.9461 372.069 51.9813 371.774C54.045 371.184 56.9251 370.812 60.1269 370.812C63.3286 370.812 66.2087 371.184 68.2724 371.774C69.3076 372.069 70.1091 372.412 70.6402 372.771C71.1888 373.141 71.3406 373.451 71.3406 373.659Z" stroke="#684D45"/>
<ellipse cx="59.5691" cy="373.659" rx="11.156" ry="2.23119" fill="#684D45"/>
<path d="M71.2826 394.33V374.217C62.8041 377.787 52.8753 375.705 48.9707 374.217V394.431C48.9707 396.04 49.9327 397.509 51.4857 397.931C55.4572 399.01 61.9261 399.8 68.6634 397.943C70.2636 397.503 71.2826 395.99 71.2826 394.33Z" fill="white" stroke="#684D45"/>
<path d="M47.3155 365.292C44.1485 365.292 43.2292 366.603 43.1617 367.83C43.1165 368.651 43.3426 369.319 44.0482 368.896C45.4983 368.027 46.2032 369.765 44.6219 370.363C43.3164 370.857 42.2773 371.427 42.2773 371.986C42.2773 372.953 44.5261 372.057 46.4249 371.129C47.7395 370.486 49.181 371.986 50.6443 371.986C51.5488 371.986 52.4994 373.136 53.4333 373.847C53.7941 374.122 54.2401 374.244 54.689 374.309C57.5727 374.726 57.7184 375.122 62.9159 374.775C65.7223 374.588 66.8205 371.986 72.9737 372.544C75.8063 372.8 71.8581 368.082 67.9535 367.524C64.0489 366.966 74.0235 362.14 68.4939 363.061C61.8003 364.176 68.5113 361.388 69.0691 358.041C69.6269 354.694 74.6471 354.136 72.4159 352.463C70.1847 350.79 62.3755 355.252 61.2599 357.483C61.5768 356.739 65.144 348.001 63.4911 348.001C61.425 348.001 59.5865 355.81 57.9131 350.79C56.2397 345.769 51.2201 345.212 48.4306 345.212C45.641 345.212 54.5663 351.347 53.4507 355.252C53.175 356.217 52.9632 356.816 52.8021 357.162C52.4685 357.878 52.1397 356.534 51.5619 355.996C49.3883 353.971 46.948 356.188 45.9829 357.494C45.7272 357.84 45.4734 358.192 45.1875 358.513C43.7723 360.104 43.8887 361.087 46.7397 360.272C47.6952 359.999 48.5722 360.137 49.3827 360.528C51.3728 361.49 49.5258 365.292 47.3155 365.292Z" fill="#F5F5F5" stroke="#684D45"/>
<rect x="198.461" y="183.958" width="65.8202" height="80.323" fill="white"/>
<rect x="206.271" y="196.229" width="23.4275" height="22.3119" fill="#684D45"/>
<path d="M206.828 245.873H257.03M206.828 230.255H257.03M206.828 238.064H257.03" stroke="#684D45" stroke-width="2"/>
<path d="M237.507 223.004H257.03" stroke="#684D45" stroke-width="2"/>
<path d="M237.507 209.617H257.03" stroke="#684D45" stroke-width="2"/>
<path d="M237.507 216.31H257.03" stroke="#684D45" stroke-width="2"/>
<path d="M237.507 202.923H257.03" stroke="#684D45" stroke-width="2"/>
<path d="M237.507 197.345H257.03" stroke="#684D45" stroke-width="2"/>
<rect x="296.633" y="77.9758" width="92.5945" height="80.323" fill="white"/>
<rect x="296.633" y="77.9758" width="92.5945" height="7.80918" fill="#684D45"/>
<path d="M323.407 81.8804H360.222" stroke="white" stroke-width="2"/>
<path d="M308.904 148.259H376.956M308.904 137.103H376.956M308.904 142.681H376.956" stroke="#684D45" stroke-width="2"/>
<path d="M310.02 91.363V125.389H376.398" stroke="#684D45" stroke-width="2"/>
<rect x="317.829" y="102.519" width="6.69358" height="20.0807" fill="#F5EBDD"/>
<rect x="328.985" y="111.444" width="6.69358" height="11.156" fill="#F5EBDD"/>
<rect x="340.141" y="95.8254" width="6.69358" height="26.7743" fill="#F5EBDD"/>
<rect x="351.297" y="95.8254" width="6.69358" height="26.7743" fill="#F5EBDD"/>
<rect x="362.453" y="106.981" width="6.69358" height="15.6184" fill="#F5EBDD"/>
<path d="M320.618 125.947V128.178" stroke="#684D45" stroke-width="2"/>
<path d="M332.332 125.947V128.178" stroke="#684D45" stroke-width="2"/>
<path d="M343.488 125.947V128.178" stroke="#684D45" stroke-width="2"/>
<path d="M354.644 125.947V128.178" stroke="#684D45" stroke-width="2"/>
<path d="M365.8 125.947V128.178" stroke="#684D45" stroke-width="2"/>
<rect x="253.125" y="235.275" width="92.5945" height="80.323" fill="white"/>
<rect x="253.125" y="235.275" width="92.5945" height="7.80918" fill="#684D45"/>
<path d="M279.899 239.18H316.714" stroke="white" stroke-width="2"/>
<path d="M265.396 305.558H333.448M265.396 294.402H333.448M265.396 299.98H333.448" stroke="#684D45" stroke-width="2"/>
<path fill-rule="evenodd" clip-rule="evenodd" d="M238.755 271.732C238.573 272.049 238.374 272.359 238.156 272.661C237.937 272.963 237.704 273.249 237.46 273.52L235.025 272.996C234.442 273.474 233.804 273.862 233.131 274.159L232.499 276.569C231.787 276.763 231.056 276.88 230.319 276.918L228.966 274.826C228.234 274.753 227.507 274.584 226.804 274.312L224.654 275.569C224.338 275.387 224.028 275.188 223.726 274.97C223.424 274.751 223.138 274.518 222.867 274.275L223.39 271.839C222.912 271.257 222.525 270.618 222.227 269.945L219.817 269.313C219.624 268.601 219.507 267.87 219.468 267.133L221.561 265.781C221.633 265.048 221.802 264.321 222.075 263.618L220.818 261.468C220.999 261.152 221.198 260.841 221.417 260.54C221.636 260.238 221.868 259.952 222.112 259.681L224.547 260.204C225.129 259.726 225.768 259.338 226.441 259.041L227.073 256.631C227.785 256.438 228.516 256.321 229.253 256.282L230.605 258.374C231.338 258.447 232.065 258.616 232.768 258.888L234.918 257.632C235.235 257.813 235.545 258.012 235.847 258.231C236.149 258.45 236.435 258.682 236.706 258.926L236.182 261.361C236.66 261.944 237.048 262.582 237.345 263.255L239.755 263.887C239.948 264.599 240.065 265.33 240.104 266.067L238.011 267.42C237.939 268.152 237.77 268.879 237.497 269.582L238.755 271.732ZM231.929 263.642C230.295 262.459 228.011 262.824 226.828 264.458C225.645 266.092 226.01 268.376 227.644 269.559C229.278 270.742 231.562 270.377 232.745 268.743C233.928 267.108 233.563 264.825 231.929 263.642Z" fill="#F5EBDD"/>
<circle cx="253.683" cy="147.701" r="2.78899" fill="#F5EBDD"/>
<circle cx="311.693" cy="60.6845" r="2.78899" fill="#F5EBDD"/>
<circle cx="346.277" cy="302.769" r="2.78899" fill="#F5EBDD"/>
<circle cx="172.244" cy="210.174" r="2.78899" fill="#F5EBDD"/>
<circle cx="369.705" cy="238.064" r="2.78899" fill="#F5EBDD"/>
<circle cx="278.672" cy="268.743" r="13.3872" fill="#F5EBDD"/>
<path d="M292.059 268.743C292.059 265.646 290.986 262.644 289.021 260.25C287.056 257.856 284.322 256.217 281.284 255.613C278.246 255.009 275.093 255.476 272.362 256.936C269.63 258.396 267.489 260.758 266.304 263.62C265.119 266.481 264.963 269.665 265.862 272.629C266.761 275.593 268.66 278.153 271.235 279.874C273.81 281.595 276.902 282.369 279.984 282.066C283.067 281.762 285.948 280.399 288.138 278.209L278.672 268.743H292.059Z" fill="#D6D0C7"/>
<circle cx="320.172" cy="268.743" r="13.3872" fill="#F5EBDD"/>
<path d="M333.559 268.743C333.559 266.177 332.822 263.665 331.435 261.506C330.047 259.347 328.069 257.632 325.735 256.566C323.401 255.5 320.809 255.127 318.269 255.492C315.729 255.857 313.347 256.944 311.408 258.624L320.172 268.743H333.559Z" fill="#D6D0C7"/>
<path d="M350.808 323.817L350.648 324V324.245V327.496C350.648 329.346 349.148 330.846 347.298 330.846H345.72H344.142C342.291 330.846 340.792 329.346 340.792 327.496V324.245V324.028L340.662 323.855L340.543 323.696C339.539 322.358 338.693 320.911 338.018 319.381L337.682 318.618C335.106 312.773 339.387 306.208 345.775 306.208C351.998 306.208 356.274 312.465 354.014 318.264L353.721 319.015C353.036 320.772 352.05 322.397 350.808 323.817Z" stroke="#684D45" stroke-width="1.3"/>
<path d="M345.431 322.013V321.513C345.37 321.513 345.309 321.525 345.252 321.546L345.431 322.013ZM345.889 324.045C345.574 323.321 345.206 322.256 345.101 321.395C345.048 320.955 345.073 320.641 345.147 320.459C345.18 320.379 345.215 320.343 345.241 320.325C345.266 320.308 345.319 320.282 345.431 320.282V319.282C345.154 319.282 344.895 319.349 344.675 319.501C344.456 319.651 344.312 319.86 344.221 320.081C344.049 320.504 344.049 321.027 344.109 321.516C344.23 322.515 344.64 323.681 344.972 324.444L345.889 324.045ZM345.252 321.546C345.097 321.606 344.998 321.6 344.932 321.582C344.862 321.563 344.78 321.515 344.688 321.409C344.491 321.182 344.32 320.775 344.198 320.246L343.223 320.472C343.357 321.048 343.572 321.65 343.934 322.065C344.121 322.28 344.361 322.461 344.663 322.545C344.969 322.63 345.289 322.603 345.609 322.48L345.252 321.546ZM345.777 320.629V321.24H346.777V320.629H345.777ZM345.504 321.513H345.431V322.513H345.504V321.513ZM345.777 321.24C345.777 321.391 345.655 321.513 345.504 321.513V322.513C346.207 322.513 346.777 321.943 346.777 321.24H345.777ZM345.431 320.282C345.622 320.282 345.777 320.437 345.777 320.629H346.777C346.777 319.885 346.174 319.282 345.431 319.282V320.282ZM344.198 320.246C343.987 319.339 344.599 318.405 345.609 318.018L345.252 317.084C343.923 317.593 342.867 318.938 343.223 320.472L344.198 320.246Z" fill="#684D45"/>
<path d="M341.257 324.245H350.182V327.034H341.257M341.257 329.265H350.182" stroke="#684D45"/>
<path d="M304.721 149.152H302.47C302.302 147.985 301.581 146.972 300.533 146.433C299.486 145.893 298.242 145.893 297.195 146.433C296.147 146.972 295.426 147.985 295.257 149.152H277.389C276.871 149.152 276.375 149.358 276.009 149.724C275.643 150.09 275.437 150.586 275.437 151.104V169.585C275.437 170.103 275.643 170.599 276.009 170.965C276.375 171.331 276.871 171.537 277.389 171.538H287.889C287.782 172.212 287.463 172.834 286.979 173.315L286.154 174.141H285.849C285.573 174.141 285.308 174.251 285.113 174.446C284.918 174.641 284.808 174.906 284.808 175.182V176.744C284.808 176.882 284.862 177.014 284.96 177.112C285.058 177.21 285.19 177.265 285.328 177.265H296.782C296.92 177.265 297.052 177.21 297.15 177.112C297.247 177.014 297.302 176.882 297.302 176.744V175.182C297.302 174.906 297.192 174.641 296.997 174.446C296.802 174.251 296.537 174.141 296.261 174.141H295.956L295.131 173.315C294.647 172.834 294.328 172.212 294.221 171.538H304.721C305.239 171.537 305.735 171.331 306.101 170.965C306.467 170.599 306.673 170.103 306.673 169.585V151.104C306.673 150.586 306.467 150.09 306.101 149.724C305.735 149.358 305.238 149.152 304.721 149.152ZM301.415 149.152H300.548C300.498 148.695 300.381 148.249 300.201 147.826L299.986 147.324C300.721 147.677 301.25 148.353 301.415 149.152ZM300.202 151.518C300.382 151.095 300.498 150.649 300.548 150.193H301.415C301.25 150.992 300.722 151.668 299.986 152.021L300.202 151.518ZM298.484 148.237L298.864 147.35L299.244 148.237C299.369 148.529 299.455 148.837 299.5 149.152H298.228C298.273 148.837 298.359 148.529 298.484 148.237ZM299.5 150.193C299.455 150.508 299.369 150.815 299.244 151.108L298.864 151.995L298.483 151.108C298.359 150.816 298.273 150.508 298.228 150.193H299.5ZM297.742 147.324L297.526 147.827C297.346 148.249 297.23 148.695 297.18 149.152H296.313C296.478 148.353 297.006 147.676 297.742 147.324ZM297.18 150.193C297.23 150.649 297.346 151.096 297.526 151.518L297.742 152.021C297.006 151.668 296.478 150.992 296.313 150.193L297.18 150.193ZM296.261 175.182V176.224H285.849L285.848 175.182H296.261ZM294.394 174.052L294.483 174.141H287.626L287.716 174.052C288.396 173.376 288.827 172.49 288.941 171.538H293.168C293.282 172.49 293.714 173.376 294.394 174.052ZM305.632 169.586C305.632 169.827 305.536 170.059 305.365 170.23C305.194 170.401 304.963 170.497 304.721 170.497H277.389C277.147 170.497 276.915 170.401 276.745 170.23C276.574 170.059 276.478 169.827 276.478 169.586V168.414H305.632L305.632 169.586ZM305.632 167.373H276.478V151.104C276.478 150.862 276.574 150.631 276.745 150.46C276.916 150.289 277.147 150.193 277.389 150.193H295.258C295.371 150.971 295.733 151.691 296.289 152.247C296.845 152.803 297.565 153.165 298.343 153.279L299.385 153.279C300.163 153.166 300.883 152.803 301.439 152.247C301.995 151.691 302.357 150.971 302.47 150.193H304.721C304.962 150.193 305.194 150.289 305.365 150.46C305.536 150.631 305.632 150.862 305.632 151.104L305.632 167.373Z" fill="#684D45"/>
<path d="M296.122 161.107H293.376C293.442 161.04 293.504 160.968 293.56 160.892L294.597 159.471C295.273 158.55 295.42 157.356 294.987 156.305L294.975 156.275C294.725 155.664 294.203 155.198 293.558 155.012C292.913 154.825 292.216 154.937 291.666 155.316C291.865 154.576 292.262 153.902 292.816 153.362L292.904 153.276H292.904C293.001 153.183 293.056 153.055 293.056 152.922C293.057 152.789 293.003 152.661 292.906 152.567C292.81 152.473 292.68 152.42 292.543 152.42C292.407 152.421 292.277 152.474 292.181 152.569L292.093 152.655L292.093 152.655C291.93 152.816 291.777 152.986 291.635 153.166L291.493 152.821C291.329 152.426 291.038 152.095 290.664 151.878C290.289 151.661 289.852 151.57 289.42 151.619L287.948 151.788C287.774 151.808 287.622 151.914 287.547 152.069C287.471 152.224 287.482 152.406 287.576 152.551L288.418 153.857V153.856C288.78 154.42 289.414 154.762 290.094 154.762C290.204 154.762 290.314 154.753 290.422 154.736L290.797 154.675C290.702 154.944 290.63 155.219 290.58 155.499C290.049 155.017 289.309 154.82 288.602 154.975C287.895 155.13 287.311 155.617 287.042 156.275L287.029 156.305C286.597 157.356 286.744 158.551 287.419 159.471L288.457 160.892C288.513 160.968 288.575 161.04 288.641 161.107H286.918C286.005 161.107 285.16 161.584 284.704 162.358C284.247 163.131 284.247 164.085 284.704 164.858C285.16 165.632 286.005 166.108 286.918 166.108H296.122C296.257 166.108 296.387 166.056 296.483 165.962C296.579 165.868 296.633 165.741 296.633 165.608V161.607C296.633 161.475 296.579 161.348 296.483 161.254C296.387 161.16 296.257 161.107 296.122 161.107L296.122 161.107ZM290.254 153.749C290.067 153.779 289.875 153.755 289.702 153.679C289.529 153.603 289.383 153.479 289.282 153.322L288.873 152.688L289.539 152.612C289.749 152.588 289.961 152.632 290.142 152.737C290.324 152.843 290.465 153.003 290.544 153.195L290.74 153.67L290.254 153.749ZM288.251 158.889V158.889C287.779 158.246 287.676 157.411 287.979 156.676L287.991 156.646V156.646C288.098 156.386 288.298 156.172 288.555 156.046C288.811 155.92 289.106 155.89 289.383 155.961C289.661 156.033 289.902 156.202 290.061 156.435C290.272 156.745 290.628 156.931 291.008 156.931C291.389 156.931 291.744 156.745 291.956 156.435C292.115 156.202 292.356 156.033 292.633 155.961C292.911 155.89 293.206 155.92 293.462 156.046C293.719 156.172 293.919 156.385 294.026 156.646L294.038 156.676C294.34 157.41 294.238 158.246 293.765 158.889L292.728 160.31C292.618 160.462 292.46 160.575 292.279 160.633C292.098 160.691 291.903 160.69 291.723 160.63L291.17 160.45V160.45C291.065 160.416 290.952 160.416 290.847 160.45L290.294 160.63V160.63C290.114 160.69 289.918 160.69 289.738 160.633C289.557 160.575 289.399 160.462 289.289 160.31L288.251 158.889ZM295.61 163.108H286.918C286.636 163.108 286.407 163.331 286.407 163.608C286.407 163.884 286.636 164.108 286.918 164.108H295.61V165.108H286.918C286.37 165.108 285.864 164.822 285.589 164.358C285.315 163.894 285.315 163.322 285.589 162.858C285.864 162.393 286.37 162.107 286.918 162.107H295.61V163.108Z" fill="#684D45"/>
</svg>
